<svg xmlns="http://www.w3.org/2000/svg" width="47" height="48" viewBox="0 0 47 48">
    <g fill="none" fill-rule="evenodd">
        <path fill="#FFF" d="M-89-1147h1366v3603H-89z"/>
        <g fill="#5869F8" fill-rule="nonzero" stroke="#5869F8" stroke-width=".2">
            <path d="M44.929 28.868l-1.596-.916c.268-1.325.403-2.652.403-3.952 0-1.318-.133-2.647-.397-3.956l1.59-.912c.492-.283.844-.739.991-1.285a2.091 2.091 0 0 0-.213-1.605l-4.346-7.484a2.112 2.112 0 0 0-1.292-.986 2.125 2.125 0 0 0-1.614.212l-1.59.913a20.39 20.39 0 0 0-6.891-3.964V3.115A2.124 2.124 0 0 0 27.846 1h-8.692a2.124 2.124 0 0 0-2.128 2.115v1.818a20.39 20.39 0 0 0-6.881 3.969l-1.6-.918a2.124 2.124 0 0 0-1.615-.212 2.112 2.112 0 0 0-1.291.986l-4.347 7.484c-.284.49-.36 1.06-.212 1.605.147.546.499 1.002.991 1.285l1.596.916A19.988 19.988 0 0 0 3.264 24c0 1.318.133 2.647.397 3.956l-1.59.912a2.111 2.111 0 0 0-.779 2.89l4.347 7.484a2.137 2.137 0 0 0 2.906.774l1.59-.913a20.392 20.392 0 0 0 6.891 3.964v1.818c0 1.166.955 2.115 2.128 2.115h8.692a2.124 2.124 0 0 0 2.128-2.115v-1.818a20.391 20.391 0 0 0 6.881-3.969l1.6.918a2.137 2.137 0 0 0 2.906-.774l4.347-7.484a2.111 2.111 0 0 0-.78-2.89zm-.398 2.215l-4.346 7.484a.773.773 0 0 1-1.051.28l-2.028-1.164a.682.682 0 0 0-.8.09 18.994 18.994 0 0 1-7.212 4.158.676.676 0 0 0-.478.645v2.309a.768.768 0 0 1-.77.765h-8.692a.768.768 0 0 1-.77-.765v-2.309a.676.676 0 0 0-.478-.645 18.997 18.997 0 0 1-7.221-4.153.68.68 0 0 0-.8-.09l-2.019 1.159a.773.773 0 0 1-1.051-.28l-4.346-7.484a.764.764 0 0 1 .281-1.045l2.017-1.158a.674.674 0 0 0 .323-.733A18.77 18.77 0 0 1 4.622 24c0-1.36.16-2.753.475-4.143a.674.674 0 0 0-.323-.733L2.75 17.962a.76.76 0 0 1-.281-1.045l4.346-7.484a.768.768 0 0 1 1.051-.28l2.028 1.164a.682.682 0 0 0 .8-.09 18.994 18.994 0 0 1 7.212-4.158.676.676 0 0 0 .478-.645V3.115c0-.421.346-.765.77-.765h8.692c.425 0 .77.344.77.765v2.309c0 .296.194.557.478.645a18.996 18.996 0 0 1 7.221 4.153c.219.201.543.237.8.09l2.019-1.159a.769.769 0 0 1 1.051.28l4.346 7.484a.76.76 0 0 1-.282 1.045l-2.016 1.158a.674.674 0 0 0-.323.733c.311 1.37.468 2.764.468 4.147 0 1.36-.16 2.753-.475 4.143a.674.674 0 0 0 .323.733l2.024 1.162c.367.21.494.68.281 1.045z"/>
            <path d="M23.5 10.362C15.936 10.362 9.783 16.48 9.783 24S15.936 37.638 23.5 37.638c7.564 0 13.717-6.118 13.717-13.638S31.064 10.362 23.5 10.362zm0 25.926c-6.815 0-12.36-5.513-12.36-12.288s5.545-12.288 12.36-12.288c6.815 0 12.36 5.513 12.36 12.288S30.314 36.288 23.5 36.288z"/>
            <path d="M26.035 20.444H23.5a.677.677 0 0 0-.68.675v5.762c0 .372.305.675.68.675.375 0 .68-.303.68-.675v-1.486h1.855c1.373 0 2.49-1.11 2.49-2.475a2.486 2.486 0 0 0-2.49-2.476zm0 3.601H24.18v-2.25h1.856a1.13 1.13 0 0 1 1.132 1.125 1.13 1.13 0 0 1-1.132 1.125zM19.79 20.882a.679.679 0 0 0-.636-.438h-.724a.679.679 0 0 0-.636.438l-2.173 5.762a.674.674 0 0 0 .397.869.68.68 0 0 0 .874-.395l.378-1.003h3.043l.378 1.003a.68.68 0 0 0 1.272-.474l-2.173-5.762zm-2.01 3.883l1.012-2.683 1.012 2.683H17.78zM30.02 20.444a.677.677 0 0 0-.68.675v5.762c0 .372.304.675.68.675.374 0 .678-.303.678-.675v-5.762a.677.677 0 0 0-.679-.675zM28.358 8.859c.471.15.94.323 1.396.515a.68.68 0 0 0 .89-.357.674.674 0 0 0-.358-.885 17.359 17.359 0 0 0-1.516-.56.675.675 0 1 0-.412 1.286zM9.461 31.598a.681.681 0 0 0-.921-.27.673.673 0 0 0-.271.917c.282.513.594 1.018.927 1.501a.68.68 0 0 0 .944.174.673.673 0 0 0 .176-.938c-.308-.445-.595-.91-.855-1.384zM22.11 39.83a16.04 16.04 0 0 1-9.727-4.416.682.682 0 0 0-.96.016.672.672 0 0 0 .016.954 17.405 17.405 0 0 0 10.613 4.793.678.678 0 0 0 .675-.617.676.676 0 0 0-.618-.73zM33.272 9.758a.682.682 0 0 0-.944.176.673.673 0 0 0 .178.939 15.912 15.912 0 0 1 6.426 8.981.679.679 0 0 0 1.31-.351 17.263 17.263 0 0 0-6.97-9.745z"/>
        </g>
    </g>
</svg>
