<svg xmlns="http://www.w3.org/2000/svg" width="46" height="41" viewBox="0 0 46 41">
    <g fill="none" fill-rule="evenodd">
        <path fill="#FFF" d="M-81-837h1366v3860H-81z"/>
        <g fill="#5869F8" fill-rule="nonzero">
            <path d="M40.561 15.633l-.007-.03a.899.899 0 0 0-1.744.43l.005.022a.898.898 0 0 0 1.746-.422zM16.773 26.789a7.286 7.286 0 0 1-3.567-6.29c0-.802.129-1.59.383-2.343a.894.894 0 0 0-.565-1.133.9.9 0 0 0-1.138.562 9.087 9.087 0 0 0-.477 2.914c0 3.229 1.658 6.153 4.436 7.823a.897.897 0 0 0 1.233-.304.893.893 0 0 0-.305-1.229zM26.853 13.851a9.146 9.146 0 0 0-6.28-2.482 9.163 9.163 0 0 0-3.193.57.894.894 0 0 0-.53 1.151.9.9 0 0 0 1.156.527 7.364 7.364 0 0 1 2.566-.458c1.885 0 3.678.709 5.05 1.995a.897.897 0 0 0 1.269-.038.893.893 0 0 0-.038-1.265z"/>
            <path d="M45.102 20.77h-6.759v-1.853c0-.9-.735-1.632-1.638-1.632h-1.206A15.13 15.13 0 0 0 31.37 9.74a15.324 15.324 0 0 0-13.539-4.212.895.895 0 1 0 .321 1.762 13.522 13.522 0 0 1 11.948 3.716 13.35 13.35 0 0 1 3.555 6.279h-4.904c-.903 0-1.638.732-1.638 1.632v1.852h-6.759c-.496 0-.898.401-.898.895v5.491c0 .84.328 1.605.863 2.176v4.593a13.357 13.357 0 0 1-9.276-3.93 13.376 13.376 0 0 1-3.675-12.185.898.898 0 1 0-1.76-.357 15.158 15.158 0 0 0 4.164 13.807 15.362 15.362 0 0 0 10.547 4.454v3.244c0 .084.006.166.016.247-10.245-.127-18.54-8.468-18.54-18.704 0-3.201.818-6.33 2.37-9.103l3.03 3.034a.9.9 0 0 0 .638.264h5.65l5.539 5.52a.897.897 0 0 0 1.27 0 .893.893 0 0 0 0-1.267l-5.539-5.519V7.8a.893.893 0 0 0-.264-.633l-3.04-3.022a18.794 18.794 0 0 1 9.122-2.352c7.288 0 13.978 4.258 17.044 10.85a.899.899 0 0 0 1.63-.754 20.554 20.554 0 0 0-7.457-8.574A20.547 20.547 0 0 0 20.572.002c-3.686 0-7.285.978-10.44 2.832L7.547.264a.9.9 0 0 0-1.533.634V5.97H.907A.893.893 0 1 0 .27 7.496l2.582 2.585A20.4 20.4 0 0 0 0 20.5c0 5.476 2.14 10.623 6.025 14.495 3.886 3.871 9.052 6.003 14.547 6.003l22.515.001c1.13 0 2.05-.915 2.05-2.042v-9.625A3.16 3.16 0 0 0 46 27.154v-5.49a.897.897 0 0 0-.898-.895zM7.81 3.054l5.147 5.115v3.465L7.81 6.495v-3.44zM6.54 7.76l5.147 5.144h-3.48L3.069 7.76h3.47zm22.37 11.314h7.636v1.694H28.91v-1.694zm14.43 15.836h-5.895c-.496 0-.899.4-.899.895 0 .494.403.895.899.895h5.895v2.255a.253.253 0 0 1-.253.252H22.36a.252.252 0 0 1-.244-.252v-8.658c.176.03.357.046.54.046h7.41a2.682 2.682 0 0 0 5.326-.006l7.406.004h.002c.183 0 .363-.016.54-.046v4.615zm-11.497-4.887V28.45h1.771v1.574a.885.885 0 0 1-1.771 0zm12.36-2.87a1.397 1.397 0 0 1-1.404 1.399l-7.388-.005v-.82a1.07 1.07 0 0 0-1.071-1.068h-3.223a1.07 1.07 0 0 0-1.071 1.067v.827h-7.39a1.403 1.403 0 0 1-1.403-1.399V22.56h22.95v4.595z"/>
            <path d="M33.678 35.173a.907.907 0 0 0-.635-.262.9.9 0 0 0-.898.895.899.899 0 0 0 1.797 0 .9.9 0 0 0-.264-.633z"/>
        </g>
    </g>
</svg>
