<svg xmlns="http://www.w3.org/2000/svg" width="46" height="37" viewBox="0 0 46 37">
    <g fill="none" fill-rule="evenodd" transform="translate(-817 -4047)">
        <path fill="#FFF" d="M0 0h1366v4500H0z"/>
        <rect width="1492" height="586" x="-62" y="3673" fill="#B6CAFB" opacity=".12" rx="10.498"/>
        <rect width="78" height="78" x="800" y="4024" stroke="#5869F8" stroke-width="2" opacity=".3" rx="20.9"/>
        <g fill="#5869F8" fill-rule="nonzero">
            <path d="M850.448 4047.068H819.59a2.593 2.593 0 0 0-2.59 2.59v18.504a2.593 2.593 0 0 0 2.59 2.59h2.001v6.888a1.085 1.085 0 0 0 1.853.767l7.659-7.656h1.537a1.085 1.085 0 1 0 0-2.169s-2.039.001-2.06.004c-.253.017-.5.12-.694.314l-6.125 6.122s-.001-5.424-.005-5.452a1.085 1.085 0 0 0-1.08-.988h-3.086a.42.42 0 0 1-.42-.42v-18.505a.42.42 0 0 1 .42-.42h30.858a.42.42 0 0 1 .42.42v7.1a1.085 1.085 0 0 0 2.17 0v-7.1a2.593 2.593 0 0 0-2.59-2.589z"/>
            <path d="M860.41 4060.335h-21.6a2.593 2.593 0 0 0-2.59 2.59v12.624a2.593 2.593 0 0 0 2.59 2.589h13.523l5.478 5.476a1.085 1.085 0 0 0 1.853-.767v-4.71h.746a2.593 2.593 0 0 0 2.59-2.588v-12.624a2.592 2.592 0 0 0-2.59-2.59zm.42 15.214a.42.42 0 0 1-.42.42h-1.83c-.572 0-1.039.44-1.082 1-.003.024-.004 3.26-.004 3.26l-3.94-3.939-.013-.012a1.08 1.08 0 0 0-.758-.31H838.81a.42.42 0 0 1-.42-.42v-12.623a.42.42 0 0 1 .42-.42h21.6a.42.42 0 0 1 .42.42v12.624z"/>
            <path d="M849.61 4068.152a1.085 1.085 0 1 0 0 2.17 1.085 1.085 0 0 0 0-2.17zM844.894 4054.24h-19.75a1.085 1.085 0 1 0 0 2.169h19.75a1.085 1.085 0 1 0 0-2.17zM832.64 4061.41h-7.496a1.085 1.085 0 1 0 0 2.17h7.496a1.085 1.085 0 1 0 0-2.17zM844.567 4068.152a1.085 1.085 0 1 0 0 2.17 1.085 1.085 0 0 0 0-2.17zM854.652 4068.152a1.085 1.085 0 1 0 0 2.17 1.085 1.085 0 0 0 0-2.17z"/>
        </g>
    </g>
</svg>
