<svg xmlns="http://www.w3.org/2000/svg" width="33" height="40" viewBox="0 0 33 40">
    <g fill="none" fill-rule="evenodd">
        <path fill="#FFF" d="M-498-1257H868v3308H-498z"/>
        <g fill="#5869F8" fill-rule="nonzero">
            <path d="M27.986 12H16.778a.779.779 0 0 0 0 1.56h11.208a.779.779 0 0 0 0-1.56zM24.984 15.823a.783.783 0 0 0-.55-.228.783.783 0 0 0-.778.78.783.783 0 0 0 .778.78.783.783 0 0 0 .778-.78.786.786 0 0 0-.228-.552zM17.05 3.581a.783.783 0 0 0-.55-.228.783.783 0 0 0-.779.78.783.783 0 0 0 .778.78.783.783 0 0 0 .779-.78.786.786 0 0 0-.228-.552zM21.16 15.595H16.5a.779.779 0 0 0 0 1.559h4.66a.779.779 0 0 0 0-1.56zM27.708 20.273H16.5a.779.779 0 0 0 0 1.56h11.208a.779.779 0 0 0 0-1.56zM24.984 24.244a.783.783 0 0 0-.55-.228.783.783 0 0 0-.778.78.783.783 0 0 0 .778.78.783.783 0 0 0 .778-.78.786.786 0 0 0-.228-.552zM21.16 24.016H16.5a.779.779 0 0 0 0 1.559h4.66a.779.779 0 0 0 0-1.56zM27.708 28.694H16.5a.779.779 0 0 0 0 1.56h11.208a.779.779 0 0 0 0-1.56zM24.984 32.665a.783.783 0 0 0-.55-.228.783.783 0 0 0-.778.78.783.783 0 0 0 .778.78.783.783 0 0 0 .778-.78.786.786 0 0 0-.228-.552zM21.16 32.437H16.5a.779.779 0 0 0 0 1.56h4.66a.779.779 0 0 0 0-1.56z"/>
            <path d="M29.205 3.041h-5.944a4.764 4.764 0 0 0-3.3-1.326h-.681A3.123 3.123 0 0 0 16.5 0a3.123 3.123 0 0 0-2.78 1.715h-.683c-1.278 0-2.44.506-3.3 1.326H3.796A3.803 3.803 0 0 0 0 6.843V36.12a3.803 3.803 0 0 0 3.795 3.802h25.41A3.803 3.803 0 0 0 33 36.12V6.843a3.803 3.803 0 0 0-3.795-3.802zm-16.168.234h1.213c.35 0 .657-.234.75-.572a1.56 1.56 0 0 1 1.5-1.144c.698 0 1.315.47 1.5 1.144.093.338.4.572.75.572h1.212c1.69 0 3.08 1.306 3.218 2.963H9.818a3.237 3.237 0 0 1 3.219-2.963zM31.443 36.12a2.243 2.243 0 0 1-2.238 2.243H3.795a2.243 2.243 0 0 1-2.238-2.243V6.843A2.243 2.243 0 0 1 3.795 4.6h4.852a4.774 4.774 0 0 0-.397 1.91v.508c0 .43.349.78.778.78H23.97c.43 0 .778-.35.778-.78V6.51c0-.679-.142-1.325-.397-1.91h4.854a2.243 2.243 0 0 1 2.238 2.242V36.12z"/>
            <path d="M11.55 11.664a.777.777 0 0 0-1.1 0L7.122 15 6.097 13.97a.778.778 0 0 0-1.101 0 .78.78 0 0 0 0 1.103l1.576 1.579a.775.775 0 0 0 1.1 0l3.879-3.886a.78.78 0 0 0 0-1.103zM9.651 28.694H5.915c-.43 0-.778.349-.778.78v3.742c0 .431.348.78.778.78h3.736c.43 0 .778-.349.778-.78v-3.742c0-.431-.348-.78-.778-.78zm-.778 3.743h-2.18v-2.184h2.18v2.184zM9.651 20.273H5.915c-.43 0-.778.349-.778.78v3.742c0 .431.348.78.778.78h3.736c.43 0 .778-.349.778-.78v-3.742c0-.431-.348-.78-.778-.78zm-.778 3.743h-2.18v-2.184h2.18v2.184z"/>
        </g>
    </g>
</svg>
