<svg xmlns="http://www.w3.org/2000/svg" width="37" height="46" viewBox="0 0 37 46">
    <g fill="none" fill-rule="evenodd">
        <path fill="#FFF" d="M-728-983H638v3860H-728z"/>
        <g fill="#5869F8" fill-rule="nonzero">
            <path d="M36.084 23.189A.907.907 0 0 0 37 22.29V8.086c0-2.477-2.054-4.492-4.58-4.492h-6.207a2.51 2.51 0 0 0-1.966-.944h-1.49C22.028 1.06 20.4 0 18.58 0h-.16c-1.82 0-3.448 1.06-4.177 2.65h-1.49c-.798 0-1.51.37-1.966.944H4.579C2.054 3.594 0 5.609 0 8.086v33.422C0 43.985 2.054 46 4.58 46h27.84c2.526 0 4.58-2.015 4.58-4.492V29.822a.907.907 0 0 0-.916-.898.907.907 0 0 0-.916.898v11.686c0 1.486-1.232 2.695-2.747 2.695H4.579c-1.515 0-2.747-1.209-2.747-2.695V8.086c0-1.486 1.232-2.695 2.747-2.695h5.678v1.796H5.495c-1.01 0-1.832.807-1.832 1.797V40.61c0 .991.822 1.797 1.832 1.797h26.01c1.01 0 1.832-.806 1.832-1.797V8.984c0-.99-.822-1.796-1.832-1.796h-4.762V5.39h5.678c1.515 0 2.747 1.209 2.747 2.695V22.29c0 .497.41.899.916.899zM12.09 5.099c0-.36.298-.652.664-.652h2.132a.913.913 0 0 0 .884-.663c.323-1.17 1.413-1.987 2.65-1.987h.161c1.238 0 2.328.817 2.651 1.987.109.392.471.663.884.663h2.132c.366 0 .664.292.664.652v2.088H12.089V5.1zm19.416 3.885l.001 31.625H5.495V8.984h26.01z"/>
            <path d="M36.732 25.5a.932.932 0 0 0-1.295 0 .897.897 0 0 0-.269.636c0 .237.098.468.269.635a.928.928 0 0 0 1.295 0 .895.895 0 0 0 .268-.635.898.898 0 0 0-.268-.636zM19.789 16.076a.932.932 0 0 0-1.295 0 .897.897 0 0 0-.269.635c0 .236.098.468.269.635a.932.932 0 0 0 1.295 0 .897.897 0 0 0 .268-.635.897.897 0 0 0-.268-.635zM28.619 15.813H23.17a.907.907 0 0 0-.916.898c0 .496.41.898.916.898h5.448a.907.907 0 0 0 .915-.898.907.907 0 0 0-.915-.898zM28.619 25.516H19.14a.907.907 0 0 0-.916.898c0 .496.41.898.916.898h9.478a.907.907 0 0 0 .915-.898.907.907 0 0 0-.915-.898zM28.619 35.219H19.14a.907.907 0 0 0-.916.898c0 .496.41.899.916.899h9.478a.907.907 0 0 0 .915-.899.907.907 0 0 0-.915-.898zM13.371 15.813h-3.48v-3.415a.907.907 0 0 0-.916-.898.907.907 0 0 0-.916.898v4.313c0 .496.41.898.916.898h4.396a.907.907 0 0 0 .916-.898.907.907 0 0 0-.916-.898z"/>
            <path d="M15.297 11.474a.928.928 0 0 0-1.295 0l-1.263 1.24-.107-.106a.929.929 0 0 0-1.295 0 .886.886 0 0 0 0 1.27l.754.741a.922.922 0 0 0 .648.263.922.922 0 0 0 .647-.263l1.91-1.874a.887.887 0 0 0 0-1.27zM13.371 25.49h-3.48v-3.415a.907.907 0 0 0-.916-.898.907.907 0 0 0-.916.898v4.313c0 .496.41.898.916.898h4.396a.907.907 0 0 0 .916-.898.907.907 0 0 0-.916-.899z"/>
            <path d="M15.297 21.151a.928.928 0 0 0-1.295 0l-1.263 1.24-.107-.106a.929.929 0 0 0-1.295 0 .886.886 0 0 0 0 1.27l.754.741a.922.922 0 0 0 .648.263.922.922 0 0 0 .647-.263l1.91-1.874a.887.887 0 0 0 0-1.27zM13.371 35.219h-3.48v-3.414a.907.907 0 0 0-.916-.899.907.907 0 0 0-.916.899v4.312c0 .496.41.899.916.899h4.396a.907.907 0 0 0 .916-.899.907.907 0 0 0-.916-.898z"/>
            <path d="M15.297 30.88a.928.928 0 0 0-1.295 0l-1.263 1.24-.107-.106a.929.929 0 0 0-1.295 0 .886.886 0 0 0 0 1.271l.754.74a.922.922 0 0 0 .648.263.922.922 0 0 0 .647-.263l1.91-1.874a.887.887 0 0 0 0-1.27z"/>
        </g>
    </g>
</svg>
