<svg xmlns="http://www.w3.org/2000/svg" width="55" height="55" viewBox="0 0 55 55">
    <g fill="none" fill-rule="evenodd">
        <path fill="#FFF" d="M-487-1118H879v3308H-487z"/>
        <g fill="#5869F8" fill-rule="nonzero">
            <path d="M54.089 26.642H41.142v-1.83h3.493a.804.804 0 0 0 0-1.607h-3.493v-1.83h2.425a3.36 3.36 0 0 0 2.392-.99l5.288-5.289c.345.172.727.263 1.123.263.674 0 1.307-.262 1.784-.739.477-.476.739-1.11.739-1.784 0-.674-.262-1.307-.739-1.784a2.506 2.506 0 0 0-1.784-.739c-.674 0-1.307.263-1.784.74a2.506 2.506 0 0 0-.74 1.783c0 .396.092.778.264 1.123l-5.288 5.288c-.335.335-.781.52-1.255.52h-2.425v-1.774A4.247 4.247 0 0 0 36.9 13.75h-1.774V6.633a2.527 2.527 0 0 0 1.719-2.391 2.526 2.526 0 0 0-2.523-2.523 2.526 2.526 0 0 0-2.523 2.523c0 1.11.72 2.054 1.719 2.39v7.119h-1.83v-3.493a.804.804 0 0 0-1.608 0v3.493h-1.83V.804a.804.804 0 0 0-1.608 0v12.947h-1.83v-3.493a.804.804 0 0 0-1.607 0v3.493h-1.83v-2.425a3.36 3.36 0 0 0-.99-2.392l-5.29-5.29c.467-.944.31-2.12-.475-2.905a2.526 2.526 0 0 0-3.568 0 2.526 2.526 0 0 0 0 3.568 2.515 2.515 0 0 0 2.905.474l5.29 5.29c.335.335.52.781.52 1.255v2.425h-1.774a4.26 4.26 0 0 0-1.06.134.804.804 0 0 0 .4 1.557c.214-.055.436-.083.66-.083H36.9a2.637 2.637 0 0 1 2.634 2.634V36.9c0 .223-.028.445-.083.659a.804.804 0 1 0 1.557.4c.089-.344.134-.7.134-1.059v-1.774h7.118a2.527 2.527 0 0 0 2.39 1.719 2.526 2.526 0 0 0 2.524-2.523 2.526 2.526 0 0 0-2.523-2.523c-1.11 0-2.054.72-2.39 1.719h-7.12v-1.83h3.494a.804.804 0 0 0 0-1.608h-3.493v-1.83h12.947a.804.804 0 0 0 0-1.608zM51.723 12.19a.909.909 0 0 1 .647-.268c.244 0 .474.096.647.268a.909.909 0 0 1 .268.647.909.909 0 0 1-.268.647.909.909 0 0 1-.647.268.909.909 0 0 1-.647-.268.909.909 0 0 1-.268-.647c0-.244.095-.474.268-.647zM13.483 3.17a.916.916 0 0 1-1.294-1.294.912.912 0 0 1 1.294 0 .916.916 0 0 1 0 1.294zm20.839 1.987a.916.916 0 0 1 0-1.83.916.916 0 0 1 0 1.83zm16.329 28.25a.916.916 0 0 1 0 1.83.916.916 0 0 1 0-1.83zM43.84 50.586a2.526 2.526 0 0 0-2.904-.474l-5.29-5.29a1.762 1.762 0 0 1-.52-1.255v-2.425H36.9c.359 0 .715-.045 1.06-.134a.804.804 0 0 0-.4-1.557 2.647 2.647 0 0 1-.66.083H17.993a2.637 2.637 0 0 1-2.634-2.634V17.993c0-.224.028-.445.083-.66a.804.804 0 0 0-1.557-.4 4.251 4.251 0 0 0-.134 1.06v1.774H6.633a2.527 2.527 0 0 0-2.391-1.719 2.526 2.526 0 0 0-2.523 2.523 2.526 2.526 0 0 0 2.523 2.523c1.11 0 2.054-.72 2.39-1.719h7.119v1.83h-3.493a.804.804 0 0 0 0 1.608h3.493v1.83H.804a.804.804 0 0 0 0 1.608h12.947v1.83h-3.493a.804.804 0 0 0 0 1.607h3.493v1.83h-2.425a3.36 3.36 0 0 0-2.392.99l-5.288 5.289a2.511 2.511 0 0 0-1.123-.263c-.674 0-1.308.262-1.784.739A2.507 2.507 0 0 0 0 42.057c0 .674.262 1.307.739 1.784.476.476 1.11.739 1.784.739.674 0 1.307-.263 1.784-.74.477-.476.74-1.11.74-1.783 0-.396-.092-.778-.264-1.123l5.288-5.288c.335-.335.781-.52 1.255-.52h2.425V36.9a4.247 4.247 0 0 0 4.242 4.242h1.774v7.118a2.527 2.527 0 0 0-1.719 2.39 2.526 2.526 0 0 0 2.523 2.524 2.526 2.526 0 0 0 2.523-2.523c0-1.11-.72-2.054-1.719-2.39v-7.12h1.83v3.494a.804.804 0 0 0 1.608 0v-3.493h1.83v12.947a.804.804 0 0 0 1.607 0V41.142h1.83v3.493a.804.804 0 0 0 1.608 0v-3.493h1.83v2.425c0 .904.351 1.753.99 2.392l5.29 5.29c-.467.944-.31 2.12.475 2.905a2.515 2.515 0 0 0 1.784.738c.646 0 1.292-.246 1.784-.738a2.526 2.526 0 0 0 0-3.568zm-39.598-29.1a.916.916 0 0 1 0-1.83.916.916 0 0 1 0 1.83zM3.17 42.704a.909.909 0 0 1-.647.268.909.909 0 0 1-.647-.268.909.909 0 0 1-.268-.647c0-.245.095-.474.268-.647a.909.909 0 0 1 .647-.268c.244 0 .474.095.647.268a.909.909 0 0 1 .268.647.908.908 0 0 1-.268.647zm18.316 7.947a.916.916 0 0 1-1.83 0 .916.916 0 0 1 1.83 0zm21.218 2.366a.916.916 0 0 1-1.294-1.294.912.912 0 0 1 1.294 0 .916.916 0 0 1 0 1.294z"/>
            <path d="M35.985 25.298c0-1.72-1.257-3.176-2.98-3.65.052-.21.08-.426.08-.647 0-1.628-1.445-2.953-3.221-2.953-.963 0-1.827.39-2.417 1.004a3.345 3.345 0 0 0-2.418-1.004c-1.776 0-3.22 1.325-3.22 2.953 0 .22.028.437.078.647-1.722.474-2.98 1.93-2.98 3.65 0 .84.298 1.633.848 2.288a3.976 3.976 0 0 0-.847 2.439c0 1.367.73 2.644 1.933 3.436v.002c0 1.865 1.662 3.382 3.705 3.382 1.174 0 2.221-.502 2.9-1.282.68.78 1.727 1.282 2.901 1.282 1.966 0 3.578-1.406 3.697-3.174 1.194-.693 1.941-1.906 1.941-3.216 0-.964-.41-1.884-1.118-2.579.707-.695 1.118-1.614 1.118-2.578zm-2.846 3.29c.775.408 1.238 1.106 1.238 1.867 0 .566-.264 1.107-.709 1.511-.422-.782-1.17-1.406-2.113-1.702a.804.804 0 0 0-.482 1.534c.82.258 1.37.927 1.37 1.665 0 .978-.94 1.774-2.096 1.774-1.156 0-2.097-.796-2.097-1.774v-5.157c0-.978.94-1.774 2.097-1.774a.804.804 0 0 0 0-1.608c-.778 0-1.5.22-2.097.595v-1.027a.804.804 0 0 0-1.608 0v4.464a3.83 3.83 0 0 0-.888-.41.804.804 0 1 0-.483 1.533c.82.258 1.371.927 1.371 1.665v1.719c0 .978-.94 1.774-2.096 1.774-1.157 0-2.097-.796-2.097-1.774 0-.42.178-.827.5-1.148a.804.804 0 0 0-1.133-1.14 3.42 3.42 0 0 0-.497.623c-.507-.48-.804-1.113-.804-1.773 0-1.192.935-2.238 2.274-2.545a.804.804 0 0 0-.36-1.568 4.898 4.898 0 0 0-1.475.601 1.94 1.94 0 0 1-.439-1.215c0-1.21 1.147-2.194 2.56-2.204l.022.002a.804.804 0 0 0 .682-1.227l-.018-.03-.01-.014a.815.815 0 0 0-.04-.052v-.001a1.194 1.194 0 0 1-.295-.771c0-.742.724-1.345 1.613-1.345.89 0 1.613.603 1.613 1.345a.804.804 0 0 0 1.608 0c0-.742.724-1.345 1.613-1.345.89 0 1.613.603 1.613 1.345 0 .198-.052.367-.12.506-.458.043-.9.154-1.32.33a.804.804 0 1 0 .625 1.483 2.903 2.903 0 0 1 1.111-.225h.045c1.413.009 2.56.993 2.56 2.203 0 .76-.463 1.458-1.238 1.867a.804.804 0 0 0 0 1.422z"/>
        </g>
    </g>
</svg>
