<svg xmlns="http://www.w3.org/2000/svg" width="51" height="43" viewBox="0 0 51 43">
    <g fill="none" fill-rule="evenodd">
        <path fill="#FFF" d="M-87-1325h1366v3603H-87z"/>
        <g fill="#5869F8" fill-rule="nonzero">
            <path d="M34.283 25.21H16.717c-2.174 0-3.942 1.802-3.942 4.016v9.759c0 2.214 1.768 4.015 3.942 4.015h17.566c2.174 0 3.942-1.801 3.942-4.015v-9.76c0-2.213-1.768-4.015-3.942-4.015zm2.445 13.775c0 1.373-1.097 2.49-2.445 2.49H16.717c-1.348 0-2.445-1.117-2.445-2.49v-9.76c0-1.372 1.097-2.49 2.445-2.49h17.566c1.348 0 2.445 1.118 2.445 2.49v9.76z"/>
            <path d="M22.037 29.5a.739.739 0 0 0-1.058 0l-3.993 4.066a.772.772 0 0 0 0 1.078l3.993 4.066a.74.74 0 0 0 1.058 0 .772.772 0 0 0 0-1.078l-3.463-3.527 3.463-3.527a.772.772 0 0 0 0-1.078zM30.021 29.5a.739.739 0 0 0-1.058 0 .772.772 0 0 0 0 1.078l3.463 3.527-3.463 3.527a.772.772 0 0 0 0 1.078.74.74 0 0 0 1.058 0l3.993-4.066a.772.772 0 0 0 0-1.078L30.02 29.5zM25.5 34.97a.744.744 0 0 0-.529.223.772.772 0 0 0 0 1.077.744.744 0 0 0 .529.224c.197 0 .39-.081.529-.224a.772.772 0 0 0 0-1.077.744.744 0 0 0-.529-.224z"/>
            <path d="M27.895 34.97a.744.744 0 0 0-.529.223.772.772 0 0 0 0 1.077.744.744 0 0 0 .53.224c.196 0 .39-.081.528-.224a.772.772 0 0 0 0-1.077.744.744 0 0 0-.529-.224zM23.105 34.97a.744.744 0 0 0-.53.223.772.772 0 0 0 0 1.077.744.744 0 0 0 .53.224c.196 0 .39-.081.529-.224a.772.772 0 0 0 0-1.077.743.743 0 0 0-.53-.224zM49.264 16.584a8.839 8.839 0 0 0-3.91-3 11.371 11.371 0 0 0-3.366-7.167 10.947 10.947 0 0 0-10.544-2.79C28.94 1.285 25.713 0 22.306 0c-2.752 0-5.4.838-7.657 2.424A13.722 13.722 0 0 0 9.942 8.21C4.331 8.817 0 13.673 0 19.467c0 2.876 1.059 5.618 2.982 7.721 1.912 2.093 4.502 3.364 7.291 3.58a.753.753 0 0 0 .803-.702.758.758 0 0 0-.69-.818 9.527 9.527 0 0 1-6.309-3.099 9.876 9.876 0 0 1-2.58-6.682c0-5.152 3.957-9.446 9.007-9.777a.75.75 0 0 0 .647-.476 12.221 12.221 0 0 1 4.348-5.535 11.784 11.784 0 0 1 6.807-2.154c3.159 0 6.145 1.243 8.409 3.5a.74.74 0 0 0 .743.184 9.47 9.47 0 0 1 2.825-.431c5.171 0 9.392 4.126 9.61 9.394a.76.76 0 0 0 .525.696c3.041.963 5.085 3.791 5.085 7.039 0 1.84-.67 3.601-1.885 4.96a7.17 7.17 0 0 1-4.626 2.372.746.746 0 0 0-.17.037H40.67a.756.756 0 0 0-.748.763c0 .421.335.762.748.762h2.396a.734.734 0 0 0 .32-.073 8.661 8.661 0 0 0 5.339-2.834A8.964 8.964 0 0 0 51 21.907a8.93 8.93 0 0 0-1.736-5.323z"/>
            <path d="M6.286 14.02a.74.74 0 0 0-1.057.057 8.133 8.133 0 0 0-2.035 5.39c0 1.6.465 3.152 1.346 4.488a.744.744 0 0 0 1.039.208.771.771 0 0 0 .204-1.058 6.594 6.594 0 0 1-1.092-3.638c0-1.613.586-3.164 1.651-4.37a.772.772 0 0 0-.056-1.076zM27.457 6.47a.736.736 0 0 0 1.045-.172.772.772 0 0 0-.169-1.064 10.104 10.104 0 0 0-6.027-1.981.756.756 0 0 0-.748.762c0 .421.335.763.748.763 1.865 0 3.646.585 5.15 1.692zM10.248 11.447a7.776 7.776 0 0 0-1.765.412.766.766 0 0 0-.456.973.75.75 0 0 0 .955.464c.461-.166.942-.278 1.43-.333a.76.76 0 0 0 .662-.842.752.752 0 0 0-.826-.674zM35.715 8.193a.752.752 0 0 0 .895-.575.763.763 0 0 0-.565-.913 7.862 7.862 0 0 0-1.762-.2.756.756 0 0 0-.749.763c0 .421.335.763.749.763.484 0 .965.054 1.432.162zM42.696 17.633c.116.067.243.099.368.099.26 0 .514-.14.652-.387a.77.77 0 0 0-.282-1.039 2.482 2.482 0 0 1-1.237-2.062c-.096-2.32-1.16-4.484-2.922-5.94a.74.74 0 0 0-1.053.111.772.772 0 0 0 .11 1.073 6.604 6.604 0 0 1 2.37 4.82 4.002 4.002 0 0 0 1.994 3.325z"/>
        </g>
    </g>
</svg>
