<svg xmlns="http://www.w3.org/2000/svg" width="42" height="51" viewBox="0 0 42 51">
    <g fill="none" fill-rule="evenodd" transform="translate(-507 -2543)">
        <rect width="78" height="78" x="489" y="2530" stroke="#5869F8" stroke-width="2" opacity=".3" rx="20.9"/>
        <g fill="#5869F8" fill-rule="nonzero">
            <path d="M528 2569.496a.997.997 0 1 0 0-1.994.997.997 0 0 0 0 1.994zM528.997 2550.57v-6.574a.997.997 0 0 0-1.995 0v6.574a.997.997 0 0 0 1.995 0zM516.028 2554.769a.995.995 0 0 0 .365-1.361l-2.993-5.175a.998.998 0 0 0-1.728.996l2.993 5.175a.998.998 0 0 0 1.363.365zM541.333 2554.404l2.993-5.175a.998.998 0 0 0-1.728-.996l-2.992 5.175a.998.998 0 0 0 1.728.996z"/>
            <path d="M507.273 2569.128l.003.005.001.001 19.948 24.498.008.009c.195.234.483.359.766.359.298 0 .587-.137.774-.368l19.948-24.498.001-.001.004-.005c.24-.296.225-.638.223-.628 0-.228-.083-.453-.218-.622l-7.981-9.961a1.008 1.008 0 0 0-.78-.374h-23.952a1.005 1.005 0 0 0-.77.374l-7.98 9.96a.998.998 0 0 0 .005 1.251zm2.87.368h8.635l6.423 18.492-15.057-18.492zm20.654 18.492l6.424-18.492h8.634l-15.058 18.492zm9.524-27.417l5.555 6.933h-7.963l2.408-6.933zm-1.752-1.036l-2.445 7.04-5.972-7.04h8.417zm-4.271 7.969h-2.308a.997.997 0 1 0 0 1.992h3.119l-7.11 20.468-7.11-20.468h3.12a.997.997 0 1 0 0-1.992H521.7l6.298-7.424 6.299 7.424zm-8.451-7.969l-5.972 7.04-2.445-7.04h8.417zm-10.17 1.036l2.409 6.933h-7.964l5.555-6.933z"/>
        </g>
    </g>
</svg>
