<svg xmlns="http://www.w3.org/2000/svg" xmlns:xlink="http://www.w3.org/1999/xlink" width="332" height="239" viewBox="0 0 332 239">
    <defs>
        <rect id="a" width="286.999" height="199.333" rx="10.498"/>
        <filter id="b" width="118.8%" height="127.1%" x="-9.4%" y="-12%" filterUnits="objectBoundingBox">
            <feOffset dy="3" in="SourceAlpha" result="shadowOffsetOuter1"/>
            <feGaussianBlur in="shadowOffsetOuter1" result="shadowBlurOuter1" stdDeviation="8.5"/>
            <feComposite in="shadowBlurOuter1" in2="SourceAlpha" operator="out" result="shadowBlurOuter1"/>
            <feColorMatrix in="shadowBlurOuter1" values="0 0 0 0 1 0 0 0 0 1 0 0 0 0 1 0 0 0 0.283882473 0"/>
        </filter>
    </defs>
    <g fill="none" fill-rule="evenodd" transform="translate(-124 -1627)">
        <path fill="#FFF" d="M0 0h1366v3603H0z"/>
        <rect width="1492" height="496" x="-63" y="1472" fill="#B6CAFB" opacity=".12" rx="10.498"/>
        <g transform="translate(152.4 1646.836)">
            <mask id="c" fill="#fff">
                <use xlink:href="#a"/>
            </mask>
            <use fill="#000" filter="url(#b)" xlink:href="#a"/>
            <rect width="283.999" height="196.333" x="1.5" y="1.5" fill="#FFF" stroke="#5869F8" stroke-linejoin="square" stroke-width="3" rx="10.498"/>
            <path fill="#5869F8" d="M0 0h288.168v18.706H0z" mask="url(#c)"/>
            <ellipse cx="11.69" cy="9.937" fill="#3D4EDC" mask="url(#c)" rx="4.092" ry="4.092"/>
            <ellipse cx="23.965" cy="9.937" fill="#3D4EDC" mask="url(#c)" rx="4.092" ry="4.092"/>
            <ellipse cx="36.24" cy="9.937" fill="#3D4EDC" mask="url(#c)" rx="4.092" ry="4.092"/>
        </g>
        <g fill="#FDCB2F" fill-rule="nonzero">
            <path d="M305.544 1779.501c1.605 0 3.156-.102 4.624-.291v-15.796a36.251 36.251 0 0 0-4.624-.291c-9.164 0-16.593 3.308-16.593 7.388v1.602c0 4.08 7.429 7.388 16.593 7.388z"/>
            <path d="M305.544 1787.06c1.605 0 3.156-.098 4.624-.28v-4.442a37.75 37.75 0 0 1-4.624.28c-8 0-14.676-2.418-16.244-5.637a3.291 3.291 0 0 0-.35 1.452v1.538c0 3.915 7.43 7.089 16.594 7.089zM310.78 1791.502v-.345c-1.511.181-3.107.28-4.758.28-8.23 0-15.099-2.418-16.712-5.637a3.216 3.216 0 0 0-.36 1.452v1.537c0 3.916 7.644 7.09 17.072 7.09a39.54 39.54 0 0 0 5.394-.362 5.21 5.21 0 0 1-.637-2.478v-1.537zM329.514 1750.525c-9.306 0-16.85 3.307-16.85 7.387v1.603c0 4.08 7.544 7.388 16.85 7.388 9.305 0 16.849-3.308 16.849-7.388v-1.603c0-4.08-7.544-7.387-16.85-7.387z"/>
            <path d="M329.514 1770.02c-8.123 0-14.903-2.418-16.495-5.637a3.25 3.25 0 0 0-.355 1.452v1.537c0 3.916 7.544 7.09 16.85 7.09 9.305 0 16.849-3.174 16.849-7.09v-1.537a3.25 3.25 0 0 0-.354-1.452c-1.593 3.219-8.373 5.637-16.495 5.637z"/>
            <path d="M329.514 1778.839c-8.123 0-14.903-2.419-16.495-5.637a3.25 3.25 0 0 0-.355 1.452v1.537c0 3.916 7.544 7.09 16.85 7.09 9.305 0 16.849-3.174 16.849-7.09v-1.537a3.25 3.25 0 0 0-.354-1.452c-1.593 3.219-8.373 5.637-16.495 5.637z"/>
            <path d="M329.514 1787.658c-8.123 0-14.903-2.419-16.495-5.637a3.25 3.25 0 0 0-.355 1.452v1.537c0 3.915 7.544 7.09 16.85 7.09 9.305 0 16.849-3.175 16.849-7.09v-1.537a3.25 3.25 0 0 0-.354-1.452c-1.593 3.218-8.373 5.637-16.495 5.637z"/>
            <path d="M329.514 1796.477c-8.123 0-14.903-2.419-16.495-5.637a3.251 3.251 0 0 0-.355 1.452v1.537c0 3.915 7.544 7.09 16.85 7.09 9.305 0 16.849-3.175 16.849-7.09v-1.538a3.25 3.25 0 0 0-.354-1.451c-1.593 3.218-8.373 5.637-16.495 5.637z"/>
        </g>
        <g fill="#FDCB2F" fill-rule="nonzero">
            <path d="M374.048 1779.501c1.605 0 3.156-.102 4.624-.291v-15.796a36.251 36.251 0 0 0-4.624-.291c-9.164 0-16.593 3.308-16.593 7.388v1.602c0 4.08 7.429 7.388 16.593 7.388z"/>
            <path d="M374.048 1787.06c1.605 0 3.156-.098 4.624-.28v-4.442a37.75 37.75 0 0 1-4.624.28c-8 0-14.676-2.418-16.244-5.637a3.291 3.291 0 0 0-.35 1.452v1.538c0 3.915 7.43 7.089 16.594 7.089zM379.283 1791.502v-.345c-1.51.181-3.106.28-4.757.28-8.23 0-15.099-2.418-16.712-5.637a3.216 3.216 0 0 0-.36 1.452v1.537c0 3.916 7.644 7.09 17.072 7.09a39.54 39.54 0 0 0 5.394-.362 5.21 5.21 0 0 1-.637-2.478v-1.537zM398.018 1750.525c-9.306 0-16.85 3.307-16.85 7.387v1.603c0 4.08 7.544 7.388 16.85 7.388 9.305 0 16.849-3.308 16.849-7.388v-1.603c0-4.08-7.544-7.387-16.85-7.387z"/>
            <path d="M398.018 1770.02c-8.123 0-14.903-2.418-16.495-5.637a3.25 3.25 0 0 0-.354 1.452v1.537c0 3.916 7.543 7.09 16.849 7.09 9.305 0 16.849-3.174 16.849-7.09v-1.537a3.25 3.25 0 0 0-.354-1.452c-1.593 3.219-8.372 5.637-16.495 5.637z"/>
            <path d="M398.018 1778.839c-8.123 0-14.903-2.419-16.495-5.637a3.25 3.25 0 0 0-.354 1.452v1.537c0 3.916 7.543 7.09 16.849 7.09 9.305 0 16.849-3.174 16.849-7.09v-1.537a3.25 3.25 0 0 0-.354-1.452c-1.593 3.219-8.372 5.637-16.495 5.637z"/>
            <path d="M398.018 1787.658c-8.123 0-14.903-2.419-16.495-5.637a3.25 3.25 0 0 0-.354 1.452v1.537c0 3.915 7.543 7.09 16.849 7.09 9.305 0 16.849-3.175 16.849-7.09v-1.537a3.25 3.25 0 0 0-.354-1.452c-1.593 3.218-8.372 5.637-16.495 5.637z"/>
            <path d="M398.018 1796.477c-8.123 0-14.903-2.419-16.495-5.637a3.251 3.251 0 0 0-.354 1.452v1.537c0 3.915 7.543 7.09 16.849 7.09 9.305 0 16.849-3.175 16.849-7.09v-1.538a3.25 3.25 0 0 0-.354-1.451c-1.593 3.218-8.372 5.637-16.495 5.637z"/>
        </g>
        <rect width="135.024" height="104.051" x=".013" y=".041" fill="#D9CAFD" rx="6.467" transform="translate(124 1702.738)"/>
        <g transform="translate(389.003 1629.705)">
            <ellipse cx="31.999" cy="32.008" fill="#31C363" rx="31.999" ry="32.008"/>
            <path fill="#FFF" d="M35.668 38.58c0-5.313-11.931-4.004-11.931-12.781 0-3.388 2.371-6.352 6.21-7.199v-3.272h4.329v3.195c2.333.385 4.253 1.348 5.495 2.733l-2.484 3.542c-1.28-1.27-2.56-2.002-4.667-2.002-2.673 0-3.99 1.194-3.99 2.965 0 5.582 11.932 3.81 11.932 12.78 0 3.85-2.56 6.622-6.286 7.392v3.657h-4.329v-3.619c-2.785-.462-5.495-1.847-6.511-4.042l2.634-3.233c1.544 2.04 4.028 3.04 6.06 3.04 2.183 0 3.538-1.116 3.538-3.156z"/>
        </g>
        <g transform="translate(228.559 1780.279)">
            <ellipse cx="22.985" cy="22.992" fill="#31C363" rx="22.985" ry="22.992"/>
            <path fill="#FFF" d="M26.14 27.34c0-3.774-8.792-2.844-8.792-9.08 0-2.407 1.747-4.514 4.576-5.115V10.82h3.19v2.27c1.72.274 3.134.957 4.049 1.942l-1.83 2.517c-.944-.903-1.887-1.423-3.44-1.423-1.969 0-2.94.848-2.94 2.106 0 3.967 8.792 2.708 8.792 9.082 0 2.735-1.886 4.704-4.631 5.251v2.599h-3.19v-2.571c-2.052-.328-4.05-1.313-4.798-2.872l1.941-2.298c1.138 1.45 2.968 2.16 4.466 2.16 1.608 0 2.607-.792 2.607-2.242z"/>
        </g>
        <g transform="translate(334.02 1684.705)">
            <ellipse cx="19.379" cy="19.385" fill="#31C363" rx="19.379" ry="19.385"/>
            <path fill="#FFF" d="M21.77 23.097c0-3.21-7.372-2.42-7.372-7.723 0-2.047 1.465-3.838 3.837-4.35V9.046h2.674v1.931c1.442.233 2.628.814 3.395 1.652l-1.534 2.14c-.791-.768-1.582-1.21-2.884-1.21-1.651 0-2.465.721-2.465 1.792 0 3.373 7.372 2.302 7.372 7.723 0 2.326-1.582 4-3.884 4.466v2.21h-2.674v-2.187c-1.721-.279-3.396-1.116-4.023-2.442l1.627-1.954c.954 1.233 2.489 1.837 3.745 1.837 1.348 0 2.186-.674 2.186-1.907z"/>
        </g>
        <g transform="translate(314.189 1627)">
            <ellipse cx="14.873" cy="14.877" fill="#31C363" rx="14.873" ry="14.877"/>
            <path fill="#FFF" d="M16.707 17.726c0-2.464-5.658-1.857-5.658-5.928 0-1.57 1.125-2.945 2.945-3.338V6.943h2.053v1.481c1.106.179 2.016.625 2.605 1.268l-1.178 1.642c-.606-.589-1.213-.928-2.213-.928-1.267 0-1.892.553-1.892 1.375 0 2.588 5.658 1.767 5.658 5.927 0 1.785-1.214 3.07-2.98 3.427v1.696h-2.053v-1.678c-1.32-.214-2.606-.857-3.087-1.874l1.249-1.5c.732.946 1.91 1.41 2.873 1.41 1.035 0 1.678-.517 1.678-1.463z"/>
        </g>
        <path fill="#966DFB" fill-rule="nonzero" d="M217.243 1745.058c.47.572.646 1.26.529 2.062l-2.232 12.487c-.079.65-.382 1.184-.91 1.604-.53.42-1.127.63-1.792.63h-32.543l-.646 3.552h31.015c.744 0 1.39.258 1.939.773.548.516.822 1.155.822 1.919s-.274 1.403-.822 1.919a2.737 2.737 0 0 1-1.939.773H176.36c-.823 0-1.527-.324-2.115-.973a2.733 2.733 0 0 1-.646-2.234l1.468-7.79-2.232-21.882-6.344-1.948c-.744-.23-1.282-.668-1.615-1.318-.333-.649-.401-1.336-.206-2.062a2.538 2.538 0 0 1 1.38-1.575c.686-.325 1.381-.391 2.086-.2l8.106 2.52c.51.153.93.44 1.263.86.333.42.539.897.617 1.431l.47 4.354 36.771 4.01c.823.114 1.45.477 1.88 1.088zm-36.713 27.209c1.175 0 2.174.4 2.996 1.203.823.801 1.234 1.775 1.234 2.921 0 1.145-.411 2.129-1.234 2.95-.822.821-1.82 1.232-2.996 1.232-1.174 0-2.173-.41-2.995-1.232-.823-.82-1.234-1.804-1.234-2.95 0-1.146.411-2.12 1.234-2.921.822-.802 1.82-1.203 2.995-1.203zm25.082 0c1.175 0 2.174.4 2.996 1.203.822.801 1.234 1.775 1.234 2.921 0 1.145-.411 2.129-1.234 2.95-.822.821-1.82 1.232-2.996 1.232-1.174 0-2.173-.41-2.995-1.232-.823-.82-1.234-1.804-1.234-2.95 0-1.146.411-2.12 1.234-2.921.822-.802 1.82-1.203 2.995-1.203z"/>
    </g>
</svg>
