<svg xmlns="http://www.w3.org/2000/svg" width="53" height="53" viewBox="0 0 53 53">
    <g fill="none" fill-rule="evenodd" transform="translate(-813 -3842)">
        <path fill="#FFF" d="M0 0h1366v4500H0z"/>
        <rect width="1492" height="586" x="-62" y="3673" fill="#B6CAFB" opacity=".12" rx="10.498"/>
        <rect width="78" height="78" x="800" y="3829" stroke="#5869F8" stroke-width="2" opacity=".3" rx="20.9"/>
        <g fill="#5869F8" fill-rule="nonzero" stroke="#E8ECFD" stroke-width=".2">
            <path d="M855.584 3849.566a.996.996 0 1 0-1.408 1.408.996.996 0 0 0 1.408-1.408zM841.497 3869.288a.996.996 0 1 0-1.408 1.408.996.996 0 0 0 1.408-1.408zM821.902 3883.192a.978.978 0 0 0-1.394-.016.997.997 0 0 0 1.41 1.408.977.977 0 0 0-.016-1.392z"/>
            <path d="M864.124 3855.289a2.988 2.988 0 0 0-3.402-.585l-2.32-2.32a.996.996 0 0 0-1.409 1.409l2.2 2.2-.63.63c-.26.261-.546.496-.852.705l-6.983-6.983c.208-.306.443-.591.704-.853l.015-.015 1.328-1.385a2.992 2.992 0 0 0-.008-4.218 2.992 2.992 0 0 0-4.227 0l-.014.015-1.328 1.385a11.872 11.872 0 0 0-3.238 10.712l.047.237a15.882 15.882 0 0 0-12.37 4.613 15.881 15.881 0 0 0-4.613 12.37l-.237-.047a11.881 11.881 0 0 0-6.08.379 11.918 11.918 0 0 0-4.63 2.858l-1.185 1.127a2.992 2.992 0 0 0-.018 4.244 2.992 2.992 0 0 0 4.216.01l1.185-1.128.018-.017c.262-.262.547-.497.853-.704l6.982 6.982a5.841 5.841 0 0 1-.696.844l-.48.457-2.217-2.217a.996.996 0 0 0-1.409 1.408l2.32 2.32a2.988 2.988 0 0 0 4.802 3.41l1.184-1.127.017-.016a11.944 11.944 0 0 0 2.87-4.64c1.093-3.283.336-6.233.33-6.318 4.5.332 9.054-1.295 12.371-4.612a15.884 15.884 0 0 0 4.613-12.371c2.132.432 4.188.379 6.318-.331a11.94 11.94 0 0 0 4.638-2.868l1.335-1.335a2.986 2.986 0 0 0 0-4.225zm-8.368 2.9c-1.893.45-3.046-.156-5.366-.524-.364-2.3-.973-3.469-.524-5.365l5.89 5.89zm-9.526-7.654a9.902 9.902 0 0 1 2.4-3.875l1.326-1.383a.997.997 0 0 1 1.403 1.414l-.015.015-1.328 1.385a7.919 7.919 0 0 0-1.897 3.075c-.91 2.728-.021 4.692.134 5.972a15.98 15.98 0 0 0-2.154-.616c-.046-.484-.902-2.897.13-5.987zm-23.13 28.53a5.904 5.904 0 0 1 2.515-.045l2.85.57c.367 2.31.974 3.474.526 5.366l-5.89-5.891zm9.529 7.654a9.939 9.939 0 0 1-2.38 3.852l-1.183 1.127a.996.996 0 0 1-1.434-1.384l1.183-1.125.018-.018a7.987 7.987 0 0 0 1.906-3.083c.906-2.722.022-4.669-.137-5.972.705.257 1.426.463 2.156.617.046.483.9 2.895-.13 5.986zm13.182-11.708c-3.896 3.895-9.807 5.196-15.085 3.019-.15-.062-4.708-.961-4.72-.964a7.905 7.905 0 0 0-4.04.251 7.989 7.989 0 0 0-3.073 1.897l-1.184 1.128a.995.995 0 0 1-1.433-1.385l1.182-1.126a9.918 9.918 0 0 1 3.878-2.403 9.887 9.887 0 0 1 5.06-.315l4.733.946c.332.066 4.548 2.275 9.647.028 1.352-.639 2.436-1.295 3.626-2.486a11.823 11.823 0 0 0 3.318-10.374c.155.03 1.306.257 2.072.41.48 4.164-.98 8.372-3.98 11.374zm-7.13-8.54l-2.079-2.078a9.852 9.852 0 0 1 1.698-1.12l6.483 6.482a9.916 9.916 0 0 1-1.79 2.438 9.924 9.924 0 0 1-2.437 1.789l-6.483-6.483a9.854 9.854 0 0 1 1.12-1.698l2.079 2.079a.996.996 0 0 0 1.409-1.41zm1.646-3.988a9.845 9.845 0 0 1 5.195.05 9.815 9.815 0 0 1 .048 5.192l-5.243-5.242zm-1.8 12.286a9.814 9.814 0 0 1-5.194-.048 9.822 9.822 0 0 1-.047-5.192l5.24 5.24zm24.189-16.664l-1.335 1.336a9.938 9.938 0 0 1-3.86 2.386 9.893 9.893 0 0 1-5.058.316c-4.694-.953-4.734-.924-4.93-1.008a11.832 11.832 0 0 0-13.079 2.518 11.822 11.822 0 0 0-3.318 10.376l-2.071-.414c-.48-4.164.98-8.37 3.98-11.37 3.893-3.893 9.802-5.2 15.086-3.02.17.07-.084-.004 4.719.963a7.882 7.882 0 0 0 7.123-2.156l1.334-1.335a.995.995 0 1 1 1.409 1.408z"/>
        </g>
    </g>
</svg>
