<svg xmlns="http://www.w3.org/2000/svg" width="40" height="40" viewBox="0 0 40 40">
    <g fill="none" fill-rule="evenodd" transform="translate(-1131 -4043)">
        <path fill="#FFF" d="M0 0h1366v4500H0z"/>
        <rect width="1492" height="586" x="-62" y="3673" fill="#B6CAFB" opacity=".12" rx="10.498"/>
        <rect width="78" height="78" x="1112" y="4024" stroke="#5869F8" stroke-width="2" opacity=".3" rx="20.9"/>
        <g fill="#5869F8" fill-rule="nonzero">
            <path d="M1170.993 4066.852c0-.675-.559-1.224-1.247-1.224h-7.478c-.688 0-1.246.549-1.246 1.224 0 .675.558 1.224 1.246 1.224h7.478c.688 0 1.247-.548 1.247-1.224zM1169.746 4050.943h-9.971c-.688 0-1.246.548-1.246 1.223 0 .676.558 1.224 1.246 1.224h9.971c.688 0 1.247-.548 1.247-1.224 0-.675-.559-1.223-1.247-1.223zM1156.036 4052.166c0-.675-.558-1.223-1.246-1.223h-7.479c-.688 0-1.246.548-1.246 1.223 0 .676.558 1.224 1.246 1.224h7.479c.688 0 1.246-.548 1.246-1.224zM1147.311 4058.285c-.688 0-1.246.549-1.246 1.224 0 .676.558 1.224 1.246 1.224h2.493c.688 0 1.246-.548 1.246-1.224 0-.675-.558-1.224-1.246-1.224h-2.493zM1147.311 4046.047h12.464c.688 0 1.246-.548 1.246-1.223 0-.676-.558-1.224-1.246-1.224h-12.464c-.688 0-1.246.548-1.246 1.224 0 .675.558 1.223 1.246 1.223zM1154.79 4060.733h12.463c.688 0 1.247-.548 1.247-1.224 0-.675-.559-1.223-1.247-1.223h-12.464c-.687 0-1.246.548-1.246 1.223 0 .676.559 1.224 1.246 1.224zM1162.268 4072.971c-.688 0-1.246.548-1.246 1.224 0 .675.558 1.224 1.246 1.224h2.493c.688 0 1.246-.549 1.246-1.224 0-.676-.558-1.224-1.246-1.224h-2.493zM1157.282 4065.628h-9.971c-.688 0-1.246.549-1.246 1.224 0 .675.558 1.224 1.246 1.224h9.971c.688 0 1.247-.549 1.247-1.224 0-.675-.559-1.224-1.247-1.224zM1157.282 4072.971h-9.971c-.688 0-1.246.548-1.246 1.224 0 .675.558 1.224 1.246 1.224h9.971c.688 0 1.247-.549 1.247-1.224 0-.676-.559-1.224-1.247-1.224zM1157.282 4080.314h-9.971c-.688 0-1.246.548-1.246 1.224 0 .675.558 1.223 1.246 1.223h9.971c.688 0 1.247-.548 1.247-1.223 0-.676-.559-1.224-1.247-1.224zM1141.08 4044.824c0-.676-.56-1.224-1.247-1.224h-7.479c-.688 0-1.246.548-1.246 1.224v7.342c0 .676.558 1.224 1.246 1.224h7.479c.688 0 1.246-.548 1.246-1.224v-7.342zm-2.494 6.119h-4.985v-4.896h4.985v4.896zM1132.354 4082.761h7.479c.688 0 1.246-.548 1.246-1.223v-7.343c0-.676-.558-1.224-1.246-1.224h-7.479c-.688 0-1.246.548-1.246 1.224v7.343c0 .675.558 1.223 1.246 1.223zm1.247-7.342h4.985v4.895h-4.985v-4.895zM1133.966 4067.717a1.26 1.26 0 0 0 1.918-.186l4.986-7.343a1.211 1.211 0 0 0-.346-1.697 1.26 1.26 0 0 0-1.728.339l-4.142 6.1-1.419-1.39a1.261 1.261 0 0 0-1.762 0 1.207 1.207 0 0 0 0 1.73l2.493 2.447z"/>
        </g>
    </g>
</svg>
