<svg xmlns="http://www.w3.org/2000/svg" width="46" height="46" viewBox="0 0 46 46">
    <g fill="none" fill-rule="evenodd" transform="translate(-503 -3845)">
        <path fill="#FFF" d="M0 0h1366v4500H0z"/>
        <rect width="1492" height="586" x="-62" y="3673" fill="#B6CAFB" opacity=".12" rx="10.498"/>
        <rect width="78" height="78" x="487" y="3829" stroke="#5869F8" stroke-width="2" opacity=".3" rx="20.9"/>
        <g fill="#5869F8" fill-rule="nonzero">
            <path d="M524.143 3876.2a.897.897 0 1 0-1.268 0c.35.35.918.35 1.268 0zM519.898 3854.88c0 5.448 4.424 9.88 9.86 9.88 5.438 0 9.861-4.432 9.861-9.88s-4.423-9.88-9.86-9.88c-5.437 0-9.861 4.432-9.861 9.88zm17.929 0c0 4.457-3.62 8.084-8.068 8.084-4.449 0-8.068-3.627-8.068-8.084s3.619-8.083 8.068-8.083c4.448 0 8.068 3.626 8.068 8.083z"/>
            <path d="M513.37 3890.734a.895.895 0 0 0 1.266.008l4.346-4.29c.738-.74.963-1.835.638-2.788l.935-.903a2.67 2.67 0 0 1 1.866-.756h11.917a8.018 8.018 0 0 0 5.628-2.29c.062-.06-.473.571 8.13-9.731a3.602 3.602 0 0 0-.426-5.064 3.59 3.59 0 0 0-5.03.4l-5.29 5.448a3.6 3.6 0 0 0-2.787-1.337h-9.997a11.546 11.546 0 0 0-4.489-.898c-4.316 0-8.086 1.997-10.108 5.743a2.674 2.674 0 0 0-2.398.744l-4.265 4.286a.9.9 0 0 0 0 1.267l10.064 10.161zm6.707-20.405c1.373 0 2.7.277 3.946.823.114.05.236.075.36.075h10.18a1.797 1.797 0 0 1 0 3.593h-7.314a.897.897 0 0 0 0 1.796h7.314a3.593 3.593 0 0 0 3.554-4.062c5.117-5.27 5.838-6.01 5.87-6.048a1.797 1.797 0 0 1 2.527-.214c.755.64.85 1.776.21 2.536l-8.04 9.63a6.236 6.236 0 0 1-4.346 1.751h-11.917a4.452 4.452 0 0 0-3.111 1.26l-.762.736-7.023-7.036c1.641-3.085 4.721-4.84 8.552-4.84zm-11.237 5.96a.893.893 0 0 1 1.11-.126c.155.095-.29-.311 7.764 7.748.358.359.34.93.005 1.266l-3.705 3.657-8.808-8.893 3.634-3.652zM528.683 3849.491v1.053a2.695 2.695 0 0 0 .896 5.235.898.898 0 0 1 0 1.796c-.382 0-.796-.241-1.164-.68a.895.895 0 0 0-1.263-.11.9.9 0 0 0-.109 1.266c.48.571 1.043.97 1.64 1.17v1.048a.897.897 0 1 0 1.793 0v-1.052a2.695 2.695 0 0 0-.896-5.235.898.898 0 0 1 0-1.797c.317 0 .652.163.969.47a.895.895 0 0 0 1.268-.02.9.9 0 0 0-.021-1.27 3.462 3.462 0 0 0-1.32-.828v-1.046a.897.897 0 1 0-1.793 0z"/>
        </g>
    </g>
</svg>
