<svg xmlns="http://www.w3.org/2000/svg" width="53" height="38" viewBox="0 0 53 38">
    <g fill="none" fill-rule="evenodd" transform="translate(-126 -2341)">
        <rect width="78" height="78" x="113" y="2321" stroke="#5869F8" stroke-width="2" opacity=".3" rx="20.9"/>
        <g fill="#5869F8" fill-rule="nonzero" transform="translate(126 2341)">
            <path d="M52.697 12.639l-9.81-9.734a1.042 1.042 0 0 0-1.465 0 1.022 1.022 0 0 0 0 1.453l9.078 9.007-5.308 5.266a.42.42 0 0 1-.59 0L34.123 8.232a.412.412 0 0 1 0-.585l3.562-3.534a1.022 1.022 0 0 0 0-1.453 1.042 1.042 0 0 0-1.465 0l-3.562 3.534a2.457 2.457 0 0 0-.528 2.713l-1.204 1.195h-8.423l-1.52-1.508a2.443 2.443 0 0 0-.64-2.402l-3.465-3.438a1.042 1.042 0 0 0-1.465 0 1.022 1.022 0 0 0 0 1.453l3.466 3.438a.41.41 0 0 1 0 .585l-.289.286L8.394 18.63l-.01.01a.419.419 0 0 1-.577-.011L2.5 13.363l9.2-9.128a1.022 1.022 0 0 0 0-1.453 1.041 1.041 0 0 0-1.465 0L.303 12.637a1.022 1.022 0 0 0 0 1.453l6.04 5.992a2.49 2.49 0 0 0 2.621.567l3.4 3.373a3.467 3.467 0 0 0-.414 1.646c0 1.936 1.588 3.511 3.54 3.511h.012c0 1.933 1.581 3.505 3.527 3.512v.004c0 1.937 1.587 3.512 3.539 3.512.6 0 1.166-.15 1.662-.412l1.265 1.255a3.134 3.134 0 0 0 2.222.913c.84 0 1.628-.324 2.221-.913a3.083 3.083 0 0 0 .918-2.071 3.2 3.2 0 0 0 2.102-.925 3.137 3.137 0 0 0 .937-2.288v-.006c.9-.055 1.73-.447 2.343-1.11.616-.665.92-1.505.918-2.342a3.372 3.372 0 0 0 2.292-.982 3.32 3.32 0 0 0 .991-2.384 3.32 3.32 0 0 0-.361-1.5l3.396-3.082c.426.296.924.446 1.424.446.637 0 1.274-.241 1.759-.722l6.04-5.993a1.021 1.021 0 0 0 0-1.452zM15.49 27.125c-.81 0-1.469-.654-1.469-1.457s.659-1.457 1.469-1.457 1.468.654 1.468 1.457-.659 1.457-1.468 1.457zm4.645 3.023c-.042.04-.083.08-.123.122-.259.227-.598.367-.97.367-.81 0-1.468-.654-1.468-1.457 0-.804.658-1.457 1.468-1.457.81 0 1.468.653 1.468 1.457 0 .372-.142.71-.375.968zm3.485 3.562l-.014.013-.015.015a1.468 1.468 0 0 1-1.023.415c-.81 0-1.468-.654-1.468-1.457 0-.372.142-.711.374-.969.042-.04.083-.08.124-.122.259-.227.598-.366.97-.366.81 0 1.468.653 1.468 1.457 0 .394-.159.751-.416 1.014zm14.364-7.836a1.309 1.309 0 0 1-.928.38c-.35 0-.68-.135-.928-.38l-2.15-2.135a1.042 1.042 0 0 0-1.465 0 1.022 1.022 0 0 0 0 1.453l2.15 2.135h.001l.006.006c.534.53.553 1.377.042 1.928a1.399 1.399 0 0 1-.986.45 1.399 1.399 0 0 1-1.015-.38l-2.071-1.946a1.041 1.041 0 0 0-1.464.04 1.022 1.022 0 0 0 .04 1.453l2.255 2.118c.224.21.349.493.353.798.004.305-.113.592-.33.808a1.137 1.137 0 0 1-1.597 0l-1.046-1.038a1.042 1.042 0 0 0-1.464 0 1.02 1.02 0 0 0 0 1.453l1.087 1.078c.202.201.313.468.313.752a1.068 1.068 0 0 1-1.07 1.062c-.286 0-.555-.11-.757-.312l-1.267-1.256a3.466 3.466 0 0 0 .414-1.645c0-1.932-1.58-3.504-3.526-3.511v-.005c0-1.936-1.588-3.512-3.54-3.512h-.012c0-1.936-1.588-3.511-3.54-3.511-.6 0-1.165.15-1.661.412l-3.236-3.211 9.154-9.083 1.594 1.581c.195.193.458.301.733.301h1.34l-4.087 4.056a3.249 3.249 0 0 0-.97 2.321c0 .877.345 1.701.97 2.321a3.3 3.3 0 0 0 2.34.962 3.3 3.3 0 0 0 2.34-.962l3.466-3.44 3.795.042 6.71 6.57c.251.245.39.573.391.922.002.349-.135.677-.384.925zm.748-3.996l-6.308-6.175-.01-.01a1.038 1.038 0 0 0-.848-.288l-4.507-.05a1.043 1.043 0 0 0-.744.302l-3.774 3.745c-.234.232-.545.36-.876.36a1.235 1.235 0 0 1-1.237-1.228c0-.328.128-.637.362-.869l5.552-5.508h5.012c.274 0 .538-.108.732-.3l1.38-1.37 8.512 8.446-3.246 2.945z"/>
            <ellipse cx="45.375" cy="13.838" rx="1.033" ry="1.025"/>
            <ellipse cx="7.52" cy="13.941" rx="1.033" ry="1.025"/>
            <ellipse cx="13.567" cy="1.144" rx="1.033" ry="1.025"/>
            <ellipse cx="39.414" cy="1.062" rx="1.033" ry="1.025"/>
        </g>
        <rect width="1216" height="148" x="75.5" y="2285.5" stroke="#B6CAFB" stroke-width="7" opacity=".12" rx="2"/>
    </g>
</svg>
