<svg xmlns="http://www.w3.org/2000/svg" width="46" height="39" viewBox="0 0 46 39">
    <g fill="none" fill-rule="evenodd" transform="translate(-1128 -3849)">
        <path fill="#FFF" d="M0 0h1366v4500H0z"/>
        <rect width="1492" height="586" x="-62" y="3673" fill="#B6CAFB" opacity=".12" rx="10.498"/>
        <rect width="78" height="78" x="1112" y="3829" stroke="#5869F8" stroke-width="2" opacity=".3" rx="20.9"/>
        <g fill="#5869F8" fill-rule="nonzero">
            <path d="M1171.97 3849.079h-41.94c-1.119 0-2.03.932-2.03 2.079v34.684c0 1.147.911 2.08 2.03 2.08h41.94c1.119 0 2.03-.933 2.03-2.08v-34.684c0-1.147-.911-2.08-2.03-2.08zm0 36.763l-41.94.002v-34.686h41.94v34.684z"/>
            <path d="M1168.158 3854.02h-34.316c-.56 0-1.015.466-1.015 1.04v22.977c0 .574.454 1.04 1.015 1.04h34.316c.56 0 1.015-.466 1.015-1.04v-22.977c0-.574-.454-1.04-1.015-1.04zm-33.3 2.08h32.284v17.599l-6.399-6.551a.999.999 0 0 0-1.436 0l-3.901 3.994-8.945-9.158a1 1 0 0 0-1.436 0l-10.167 10.409v-16.294zm0 20.897v-1.664l10.885-11.144 12.51 12.808h-23.396zm32.285 0h-6.018l-4.283-4.385 3.183-3.26 6.884 7.048c.071.072.15.131.233.178v.42z"/>
            <path d="M1155.343 3858.072c-2.116 0-3.838 1.763-3.838 3.93 0 2.167 1.722 3.93 3.838 3.93 2.117 0 3.84-1.763 3.84-3.93 0-2.167-1.723-3.93-3.84-3.93zm0 5.781c-.997 0-1.808-.83-1.808-1.85 0-1.021.811-1.852 1.808-1.852s1.809.83 1.809 1.851-.812 1.851-1.809 1.851zM1142.674 3881.42h-8.832c-.56 0-1.015.465-1.015 1.04 0 .573.454 1.039 1.015 1.039h8.832c.561 0 1.016-.466 1.016-1.04 0-.574-.455-1.04-1.016-1.04zM1149.624 3881.42h-2.316c-.56 0-1.016.465-1.016 1.04 0 .573.455 1.039 1.016 1.039h2.316c.561 0 1.016-.466 1.016-1.04 0-.574-.455-1.04-1.016-1.04z"/>
        </g>
    </g>
</svg>
