<?xml version="1.0" encoding="UTF-8"?>
<svg width="171px" height="207px" viewBox="0 0 171 207" version="1.1" xmlns="http://www.w3.org/2000/svg" xmlns:xlink="http://www.w3.org/1999/xlink">
    <!-- Generator: Sketch 51.3 (57544) - http://www.bohemiancoding.com/sketch -->
    <title>Group 6</title>
    <desc>Created with Sketch.</desc>
    <defs>
        <filter x="-36.7%" y="-24.4%" width="173.3%" height="156.4%" filterUnits="objectBoundingBox" id="filter-1">
            <feOffset dx="0" dy="3" in="SourceAlpha" result="shadowOffsetOuter1"></feOffset>
            <feGaussianBlur stdDeviation="8.5" in="shadowOffsetOuter1" result="shadowBlurOuter1"></feGaussianBlur>
            <feComposite in="shadowBlurOuter1" in2="SourceAlpha" operator="out" result="shadowBlurOuter1"></feComposite>
            <feColorMatrix values="0 0 0 0 1   0 0 0 0 1   0 0 0 0 1  0 0 0 0.283882473 0" type="matrix" in="shadowBlurOuter1" result="shadowMatrixOuter1"></feColorMatrix>
            <feMerge>
                <feMergeNode in="shadowMatrixOuter1"></feMergeNode>
                <feMergeNode in="SourceGraphic"></feMergeNode>
            </feMerge>
        </filter>
        <rect id="path-2" x="0" y="0" width="119.705882" height="155.562044" rx="11.4318864"></rect>
        <filter x="-22.6%" y="-15.4%" width="145.1%" height="134.7%" filterUnits="objectBoundingBox" id="filter-4">
            <feOffset dx="0" dy="3" in="SourceAlpha" result="shadowOffsetOuter1"></feOffset>
            <feGaussianBlur stdDeviation="8.5" in="shadowOffsetOuter1" result="shadowBlurOuter1"></feGaussianBlur>
            <feComposite in="shadowBlurOuter1" in2="SourceAlpha" operator="out" result="shadowBlurOuter1"></feComposite>
            <feColorMatrix values="0 0 0 0 1   0 0 0 0 1   0 0 0 0 1  0 0 0 0.283882473 0" type="matrix" in="shadowBlurOuter1"></feColorMatrix>
        </filter>
    </defs>
    <g id="Current" stroke="none" stroke-width="1" fill="none" fill-rule="evenodd">
        <g id="DET-Desktop-Index" transform="translate(-420.000000, -1749.000000)">
            <g id="Group-6" transform="translate(446.294118, 1768.325759)">
                <g id="Rectangle-5-Copy" filter="url(#filter-1)">
                    <mask id="mask-3" fill="white">
                        <use xlink:href="#path-2"></use>
                    </mask>
                    <g id="Mask">
                        <use fill="black" fill-opacity="1" filter="url(#filter-4)" xlink:href="#path-2"></use>
                        <rect stroke="#5869F8" stroke-width="3" stroke-linejoin="square" fill="#FFFFFF" fill-rule="evenodd" x="1.5" y="1.5" width="116.705882" height="152.562044" rx="11.4318864"></rect>
                    </g>
                    <rect id="Rectangle-5" fill="#5869F8" mask="url(#mask-3)" x="-11.3235294" y="0" width="131.029412" height="20.2554745"></rect>
                    <rect id="Rectangle-5-Copy-6" fill="#5869F8" mask="url(#mask-3)" x="-11.3235294" y="135.306569" width="131.029412" height="20.2554745"></rect>
                    <ellipse id="Oval-Copy-2" fill="#238AF7" opacity="0.200000003" mask="url(#mask-3)" cx="-5.66176471" cy="10.9379562" rx="5.66176471" ry="4.45620438"></ellipse>
                </g>
                <g id="Group-13" transform="translate(42.867647, 7.291971)" fill="#3D4EDC">
                    <ellipse id="Oval-Copy-2" cx="3.64390786" cy="3.6449558" rx="3.64295676" ry="3.6449558"></ellipse>
                    <rect id="Rectangle-3" x="11.3235294" y="0" width="23.4558824" height="7.2919708" rx="3.6459854"></rect>
                </g>
                <path d="M84.7042201,65.1399892 C84.2717605,64.5609491 83.6626319,64.1167287 82.8774846,63.8064588 C82.9194299,64.5305305 82.8681634,65.1198912 82.7235767,65.5751927 L73.4403266,96.1881619 C73.2749297,96.7257023 72.9136796,97.1547134 72.3573349,97.4753039 C71.8001232,97.7961117 71.2226432,97.9563526 70.6243532,97.9563526 L42.0627245,97.9563526 C39.5871911,97.9563526 38.1020879,97.2336932 37.6067645,95.7852239 C37.4005061,95.226825 37.4109112,94.7826046 37.6379796,94.4516935 C37.8647228,94.141315 38.2566462,93.9858541 38.8139663,93.9858541 L65.7047184,93.9858541 C67.6233651,93.9858541 68.9487076,93.6289786 69.6811793,92.9155534 C70.414193,92.2021282 71.1514337,90.6149283 71.8936602,88.1546054 L80.3724703,60.0533448 C80.8261736,58.5232884 80.640617,57.1791115 79.8152585,56.0214659 C78.9899001,54.8638203 77.8142385,54.2846715 76.2875151,54.2846715 L52.7390582,54.2846715 C52.4709116,54.2846715 51.9446982,54.3774483 51.1607431,54.5636537 L51.1915247,54.4703337 C50.613828,54.3464865 50.1238155,54.2897775 49.7215955,54.2996636 C49.3194839,54.3104187 48.9480455,54.42916 48.6077139,54.6569737 C48.2673822,54.8844615 47.9938163,55.1271586 47.7876664,55.3854995 C47.581408,55.6440578 47.3800271,55.9749688 47.1841738,56.3780155 C46.9885373,56.7816054 46.8232489,57.1539075 46.6891755,57.4950305 C46.5551022,57.8361536 46.4002188,58.1982438 46.2251756,58.5811924 C46.0495905,58.9637065 45.8798582,59.2789737 45.7146781,59.5269941 C45.5907931,59.6924496 45.4157499,59.9095082 45.1885731,60.178387 C44.9619382,60.4471572 44.7761649,60.6850743 44.6317949,60.8918122 C44.4875333,61.0985502 44.3944298,61.2846469 44.3534599,61.4502111 C44.3124901,61.6360906 44.3328666,61.9100754 44.4153483,62.2721655 C44.4977215,62.6337125 44.5288283,62.8971595 44.5079098,63.0627236 C44.4255366,63.848393 44.1417823,64.8459064 43.6571891,66.0559155 C43.1725959,67.2657073 42.7337414,68.1395907 42.3419265,68.6769138 C42.2594449,68.7801198 42.0327016,69.0128222 41.6612632,69.3748037 C41.2898248,69.736568 41.0629732,70.0516179 40.9807083,70.3203881 C40.8981183,70.4237028 40.8929158,70.7133315 40.9651008,71.1888396 C41.0372858,71.6646737 41.0634067,71.9952589 41.0425967,72.1813556 C40.9596815,72.8845688 40.702265,73.8149439 40.2688299,74.9730241 C39.8353948,76.1307784 39.4023932,77.0821206 38.9689581,77.8263989 C38.9072866,77.9503548 38.732135,78.1879459 38.4429615,78.5398241 C38.1544383,78.891485 37.9787448,79.1810051 37.9169648,79.407841 C37.8757782,79.5732966 37.8811975,79.8628166 37.9325724,80.2762925 C37.9838389,80.6897684 37.9787448,80.999821 37.9169648,81.2064503 C37.7521099,81.9916852 37.4425599,82.9381387 36.9886398,84.0446159 C36.5348282,85.1503325 36.0706115,86.0974379 35.595773,86.8823468 C35.4724298,87.0894107 35.3018305,87.332651 35.0854923,87.6114159 C34.8688289,87.8901807 34.6987715,88.133421 34.5748864,88.3400504 C34.4512181,88.5467883 34.3686281,88.7638469 34.3273331,88.9914433 C34.3067398,89.1156164 34.3379549,89.3171398 34.4204365,89.5966651 C34.5028098,89.87543 34.5339166,90.0977032 34.5129981,90.2637019 C34.492188,90.552896 34.4512181,90.9358447 34.3893298,91.4116787 C34.3273331,91.8867523 34.2962263,92.1655172 34.2962263,92.248082 C33.8424147,93.4891616 33.8627912,94.802268 34.3582231,96.1882706 C34.9359198,97.8002399 35.9620088,99.1606039 37.4370322,100.266646 C38.9121639,101.373124 40.4436563,101.925547 42.0323765,101.925547 L70.5943303,101.925547 C71.9347384,101.925547 73.1984093,101.475678 74.3846927,100.576699 C75.5708677,99.6770685 76.360242,98.5661372 76.751515,97.2419497 L85.2609984,69.1414495 C85.7153519,67.652241 85.5299037,66.3186019 84.7042201,65.1399892 Z M51.7795181,65.2020215 L52.4295082,63.2167722 C52.5118814,62.948002 52.6819389,62.7154082 52.9398973,62.5189909 C53.1978556,62.3228994 53.4610165,62.2243649 53.7291632,62.2243649 L72.5437586,62.2243649 C72.8323902,62.2243649 73.0385401,62.3224649 73.1624252,62.5189909 C73.2859851,62.7155169 73.3071203,62.948002 73.2247471,63.2167722 L72.5742151,65.2020215 C72.4914083,65.4709003 72.3220011,65.7029509 72.0633924,65.8999114 C71.8052173,66.0960028 71.5425983,66.1941029 71.2745601,66.1941029 L52.4605065,66.1941029 C52.1715498,66.1941029 51.9653999,66.0963288 51.8415148,65.8999114 C51.7177381,65.7029509 51.6971448,65.4709003 51.7795181,65.2020215 Z M49.2113148,73.142258 L49.8611965,71.1573346 C49.9435698,70.8885644 50.113844,70.6559707 50.3715856,70.4595533 C50.629544,70.2630273 50.8923797,70.1649273 51.1608515,70.1649273 L69.9747967,70.1649273 C70.2637534,70.1649273 70.4703369,70.2627014 70.5938968,70.4595533 C70.7174567,70.6560793 70.7381584,70.8885644 70.6554599,71.1573346 L70.0055782,73.142258 C69.9233134,73.4110282 69.7530392,73.6438392 69.4952975,73.8400393 C69.237014,74.0365653 68.9745034,74.1346653 68.7059232,74.1346653 L49.8919781,74.1346653 C49.6032381,74.1346653 49.3969798,74.0368912 49.2733115,73.8400393 C49.1493181,73.6438392 49.1288332,73.4110282 49.2113148,73.142258 Z" id="Shape" fill="#31C363"></path>
            </g>
        </g>
    </g>
</svg>