<?xml version="1.0" encoding="UTF-8"?>
<svg width="106px" height="158px" viewBox="0 0 106 158" version="1.1" xmlns="http://www.w3.org/2000/svg" xmlns:xlink="http://www.w3.org/1999/xlink">
    <!-- Generator: Sketch 51.3 (57544) - http://www.bohemiancoding.com/sketch -->
    <title>Group 11</title>
    <desc>Created with Sketch.</desc>
    <defs>
        <rect id="path-1" x="0" y="0" width="72.7941176" height="124.773723" rx="9.14550912"></rect>
        <filter x="-37.1%" y="-19.2%" width="174.2%" height="143.3%" filterUnits="objectBoundingBox" id="filter-3">
            <feOffset dx="0" dy="3" in="SourceAlpha" result="shadowOffsetOuter1"></feOffset>
            <feGaussianBlur stdDeviation="8.5" in="shadowOffsetOuter1" result="shadowBlurOuter1"></feGaussianBlur>
            <feComposite in="shadowBlurOuter1" in2="SourceAlpha" operator="out" result="shadowBlurOuter1"></feComposite>
            <feColorMatrix values="0 0 0 0 1   0 0 0 0 1   0 0 0 0 1  0 0 0 0.283882473 0" type="matrix" in="shadowBlurOuter1"></feColorMatrix>
        </filter>
    </defs>
    <g id="Current" stroke="none" stroke-width="1" fill="none" fill-rule="evenodd">
        <g id="DET-Desktop-Index" transform="translate(-366.000000, -1770.000000)">
            <g id="Group-11" transform="translate(382.000000, 1783.000000)">
                <g id="Group-6-Copy" transform="translate(0.397059, 0.719920)">
                    <g id="Rectangle-5-Copy">
                        <mask id="mask-2" fill="white">
                        <mask id="mask-2" fill="white">
                            <use xlink:href="#path-1"></use>
                        </mask>
                        <g id="Mask">
                            <use fill="black" fill-opacity="1" filter="url(#filter-3)" xlink:href="#path-1"></use>
                            <rect stroke="#5869F8" stroke-width="3" stroke-linejoin="square" fill="#FFFFFF" fill-rule="evenodd" x="1.5" y="1.5" width="69.7941176" height="121.773723" rx="9.14550912"></rect>
                        </g>
                        <rect id="Rectangle-5" fill="#5869F8" mask="url(#mask-2)" x="-6.96964956" y="0" width="79.7637672" height="16.3356408"></rect>
                        <rect id="Rectangle-5-Copy-6" fill="#5869F8" mask="url(#mask-2)" x="-6.96964956" y="108.397172" width="79.7637672" height="16.3356408"></rect>
                        <ellipse id="Oval-Copy-2" fill="#238AF7" opacity="0.200000003" mask="url(#mask-2)" cx="-3.42322633" cy="9.0322718" rx="3.54642323" ry="3.57342143"></ellipse>
                    </g>
                    <ellipse id="Oval-Copy-2" fill="#3D4EDC" cx="38.8235294" cy="8.90765068" rx="4.04411765" ry="4.04633681"></ellipse>
                    <g id="book" transform="translate(16.262516, 43.670803)"></g>
                </g>
                <path d="M54.8203674,53.8459807 C54.5081357,53.4323807 54.0683507,53.1150804 53.501482,52.893459 C53.5317661,53.4106531 53.4947522,53.831625 53.390362,54.1568404 L46.6879453,76.023247 C46.5685304,76.4072044 46.3077113,76.7136409 45.9060358,76.9426341 C45.5037343,77.1717825 45.0867994,77.2862403 44.6548398,77.2862403 L24.0336205,77.2862403 C22.2463094,77.2862403 21.1740792,76.770055 20.8164605,75.7354341 C20.667544,75.3365777 20.6750563,75.0192774 20.8389975,74.7829124 C21.0027039,74.5612134 21.2856688,74.45017 21.6880485,74.45017 L41.1029111,74.45017 C42.4881555,74.45017 43.4450399,74.1952589 43.9738774,73.6856694 C44.5031062,73.17608 45.0353868,72.0423658 45.5712671,70.2849923 L51.6928859,50.2126633 C52.0204553,49.1197659 51.8864852,48.1596395 51.2905844,47.3327498 C50.6946836,46.5058601 49.8458674,46.0921824 48.7435879,46.0921824 L31.74183,46.0921824 C31.5482308,46.0921824 31.1683098,46.1584515 30.6023018,46.2914554 L30.6245258,46.2247983 C30.2074344,46.136336 29.8536501,46.0958295 29.5632512,46.102891 C29.2729305,46.1105733 29.0047556,46.1953884 28.7590394,46.3581125 C28.5133233,46.5206038 28.3158113,46.6939589 28.1669731,46.8784881 C28.0180566,47.0631726 27.8726615,47.2995376 27.7312573,47.5874281 C27.5900096,47.8757066 27.470673,48.1416367 27.3738733,48.385296 C27.2770737,48.6289553 27.1652494,48.8875911 27.0388699,49.1611259 C26.9120991,49.4343502 26.7895541,49.6595411 26.6702956,49.8366985 C26.5808518,49.954881 26.4544723,50.1099229 26.2904529,50.3019792 C26.1268247,50.4939579 25.9926981,50.6638986 25.8884644,50.8115686 C25.7843089,50.9592386 25.7170891,51.0921648 25.6875093,51.2104249 C25.6579295,51.343196 25.6726411,51.5388994 25.7321921,51.7975353 C25.7916648,52.0557831 25.8141235,52.2439595 25.7990206,52.3622196 C25.7395479,52.9234121 25.5346801,53.6359216 25.1848085,54.5002138 C24.8349369,55.3643508 24.5180882,55.9885532 24.2352016,56.3723554 C24.1756507,56.446074 24.0119443,56.61229 23.7437693,56.8708483 C23.4755944,57.1292513 23.3118097,57.354287 23.2524153,57.5462657 C23.1927861,57.6200619 23.1890299,57.8269395 23.2411468,58.1665882 C23.2932636,58.5064697 23.3121227,58.7426019 23.2970981,58.8755282 C23.2372341,59.3778233 23.0513819,60.042377 22.738446,60.8695771 C22.42551,61.6965444 22.1128871,62.3760746 21.7999511,62.907702 C21.7554249,62.9962419 21.6289671,63.1659498 21.4201866,63.4172914 C21.2118757,63.6684778 21.0850267,63.8752778 21.0404222,64.0373035 C21.0106858,64.155486 21.0145985,64.362286 21.0516907,64.657626 C21.0887046,64.9529659 21.0850267,65.1744321 21.0404222,65.3220244 C20.9213985,65.8829064 20.6979064,66.5589447 20.3701805,67.3492855 C20.0425329,68.1390831 19.7073729,68.8155869 19.3645441,69.3762362 C19.2754916,69.5241389 19.1523205,69.697882 18.9961264,69.8969998 C18.8396975,70.0961176 18.7169177,70.2698606 18.6274739,70.417453 C18.5381866,70.565123 18.4785574,70.7201648 18.4487428,70.8827337 C18.4338746,70.9714288 18.4564116,71.115374 18.5159626,71.315035 C18.5754353,71.5141527 18.5978941,71.6729193 18.5827911,71.7914898 C18.5677664,71.998057 18.5381866,72.2715918 18.4935038,72.6114733 C18.4487428,72.9508116 18.426284,73.1499293 18.426284,73.2089042 C18.0986364,74.0953896 18.1133481,75.0333228 18.4710451,76.0233246 C18.8881365,77.1747313 19.6289629,78.1464198 20.6939154,78.9364502 C21.7589463,79.7267911 22.8646689,80.1213795 24.0117095,80.1213795 L44.6331636,80.1213795 C45.6009252,80.1213795 46.5132834,79.8000441 47.3697685,79.1579164 C48.2261754,78.5153231 48.796096,77.7218008 49.0785913,76.7759525 L55.2223559,56.7041667 C55.5503948,55.6404463 55.4165029,54.687847 54.8203674,53.8459807 Z M31.0490514,53.8902895 L31.5183379,52.4722543 C31.5778106,52.2802756 31.7005904,52.1141372 31.8868339,51.9738391 C32.0730773,51.8337738 32.263077,51.7633919 32.4566762,51.7633919 L46.0406319,51.7633919 C46.2490211,51.7633919 46.3978594,51.8334634 46.4873032,51.9738391 C46.5765123,52.1142148 46.5917717,52.2802756 46.532299,52.4722543 L46.0626212,53.8902895 C46.0028355,54.0823458 45.8805252,54.2480962 45.6938122,54.3887823 C45.5074122,54.5288476 45.3178039,54.5989191 45.1242829,54.5989191 L31.5407184,54.5989191 C31.3320945,54.5989191 31.1832562,54.5290804 31.0938124,54.3887823 C31.0044468,54.2480962 30.9895787,54.0823458 31.0490514,53.8902895 Z M29.1948335,59.561887 L29.6640418,58.1440846 C29.7235145,57.9521059 29.8464508,57.7859675 30.0325377,57.6456694 C30.2187812,57.5052937 30.408546,57.4352222 30.6023801,57.4352222 L44.1858663,57.4352222 C44.3944902,57.4352222 44.5436415,57.5050609 44.6328506,57.6456694 C44.7220596,57.7860451 44.737006,57.9521059 44.6772986,58.1440846 L44.2080903,59.561887 C44.1486958,59.7538657 44.0257595,59.9201593 43.8396726,60.0603022 C43.6531943,60.2006779 43.4636642,60.2707494 43.2697519,60.2707494 L29.6862658,60.2707494 C29.4777983,60.2707494 29.3288818,60.2009107 29.2395945,60.0603022 C29.1500724,59.9201593 29.1352825,59.7538657 29.1948335,59.561887 Z" id="Shape" fill="#966DFB"></path>
            </g>
        </g>
    </g>
</svg>