<?xml version="1.0" encoding="UTF-8"?>
<svg width="30px" height="30px" viewBox="0 0 30 30" version="1.1" xmlns="http://www.w3.org/2000/svg" xmlns:xlink="http://www.w3.org/1999/xlink">
    <!-- Generator: Sketch 51.3 (57544) - http://www.bohemiancoding.com/sketch -->
    <title>Group 14 Copy 2</title>
    <desc>Created with Sketch.</desc>
    <defs></defs>
    <g id="Current" stroke="none" stroke-width="1" fill="none" fill-rule="evenodd">
        <g id="DET-Desktop-Index" transform="translate(-857.000000, -2203.000000)">
            <g id="Group-14-Copy-2" transform="translate(857.000000, 2203.000000)">
                <circle id="Oval-4-Copy" fill="#31C363" cx="15" cy="15" r="15"></circle>
                <path d="M16.85,17.872 C16.85,15.388 11.144,16 11.144,11.896 C11.144,10.312 12.278,8.926 14.114,8.53 L14.114,7 L16.184,7 L16.184,8.494 C17.3,8.674 18.218,9.124 18.812,9.772 L17.624,11.428 C17.012,10.834 16.4,10.492 15.392,10.492 C14.114,10.492 13.484,11.05 13.484,11.878 C13.484,14.488 19.19,13.66 19.19,17.854 C19.19,19.654 17.966,20.95 16.184,21.31 L16.184,23.02 L14.114,23.02 L14.114,21.328 C12.782,21.112 11.486,20.464 11,19.438 L12.26,17.926 C12.998,18.88 14.186,19.348 15.158,19.348 C16.202,19.348 16.85,18.826 16.85,17.872 Z" id="$-copy" fill="#FFFFFF"></path>
            </g>
        </g>
    </g>
</svg>