<?xml version="1.0" encoding="UTF-8"?>
<svg width="39px" height="38px" viewBox="0 0 39 38" version="1.1" xmlns="http://www.w3.org/2000/svg" xmlns:xlink="http://www.w3.org/1999/xlink">
    <!-- Generator: Sketch 51.3 (57544) - http://www.bohemiancoding.com/sketch -->
    <title>Bitmap Copy 2</title>
    <desc>Created with Sketch.</desc>
    <defs>
        <ellipse id="path-1" cx="16.5326553" cy="16.4543687" rx="16.5326553" ry="16.4543687"></ellipse>
        <polygon id="path-3" points="0.119964143 0.211957223 16.4934476 0.211957223 16.4934476 15.8941853 0.119964143 15.8941853"></polygon>
        <ellipse id="path-5" cx="16.5326553" cy="16.4543687" rx="16.5326553" ry="16.4543687"></ellipse>
    </defs>
    <g id="Current" stroke="none" stroke-width="1" fill="none" fill-rule="evenodd">
        <g id="DET-Desktop-Index" transform="translate(-523.000000, -1038.000000)">
            <g id="Bitmap-Copy-2" transform="translate(526.000000, 1041.000000)">
                <mask id="mask-2" fill="white">
                    <use xlink:href="#path-1"></use>
                </mask>
                <use id="Mask" fill="#DFF4FD" xlink:href="#path-1"></use>
                <g id="Group-32" mask="url(#mask-2)">
                    <g transform="translate(5.668339, 7.521997)">
                        <path d="M21.0970981,15.6501781 L17.5122113,26.3804638 L4.87912941,25.7629669 L4.17097384,17.4598559 C3.92975297,14.6457164 5.76957904,12.1902192 8.38372413,11.3563514 C9.12806283,11.1172565 9.93787577,11.0092357 10.777669,11.0662101 L18.1852175,11.5526331 C18.5246497,11.5753569 18.8461627,11.6464926 19.1438982,11.7548427 C20.7187259,12.3324905 21.6419126,14.0170222 21.0970981,15.6501781" id="Fill-7" fill="#FFFFFF"></path>
                        <path d="M19.023368,11.7581726 C18.7669167,13.1618131 16.4585101,14.2597102 13.6434138,14.2597102 C10.6585005,14.2597102 8.23998895,13.0248242 8.23998895,11.4980921 C8.23998895,11.4524291 8.24309536,11.4037881 8.24585661,11.3581251 C8.99139463,11.1175672 9.80251238,11.0090349 10.6436587,11.066279 L18.0631426,11.5550054 C18.4031218,11.5781678 18.7251528,11.6493094 19.023368,11.7581726" id="Fill-9" fill="#EABCF7"></path>
                        <path d="M4.81621534,25.3109855 C6.35921522,25.3109855 17.9186672,25.9609409 17.9186672,25.9609409 L20.1497338,30.6177965 C20.7111055,31.7887084 20.9565984,33.077373 20.8632081,34.3643838 L19.3016675,55.9693624 L0.431335162,54.8784959 L4.81621534,25.3109855 Z" id="Fill-11" fill="#2062A9"></path>
                        <path d="M9.82567476,34.7090185 C9.82295023,34.7000191 9.8212474,34.6940196 9.81954457,34.68802 C9.64551546,34.2440515 9.72282389,33.7034232 10.0095803,33.376113 L16.3750952,26.8822403 C16.7851364,26.3076144 17.0156994,25.5566677 17.0248947,24.7710568 C17.0248947,24.7710568 16.9850485,15.900686 17.1311512,15.4343857 L17.1311512,15.4230532 L17.1355786,15.4190535 C17.3978142,14.5977784 18.0602147,13.9188266 18.9623734,13.6581784 L18.9685036,13.6525121 L18.9763366,13.6538454 C18.9879158,13.6505123 18.9994951,13.6458459 19.0114149,13.6425128 C20.4608628,13.2528738 21.95799,14.087148 22.3561114,15.505714 C22.5386546,16.1560012 20.852854,27.2452146 20.852854,27.2452146 C20.7431918,28.2854741 20.2456252,29.1860769 19.5307777,29.6443777 L10.9148041,35.1833182 C10.5125959,35.4406333 10.0313765,35.2289816 9.82567476,34.7090185" id="Fill-13" fill="#EABCF7"></path>
                        <path d="M9.16176843,6.88480207 C10.96611,9.11283411 14.4380437,9.11283411 16.2423852,6.88480207 C17.4714245,5.36675911 17.4714245,3.18906699 16.2423852,1.67102403 C14.4380437,-0.557008011 10.96611,-0.557008011 9.16176843,1.67102403 C7.93272913,3.18906699 7.93272913,5.36675911 9.16176843,6.88480207" id="Fill-15" fill="#D874F5"></path>
                        <g id="Group-19" stroke-width="1" fill="none" transform="translate(10.842874, 2.495449)">
                            <mask id="mask-4" fill="white">
                                <use xlink:href="#path-3"></use>
                            </mask>
                            <g id="Clip-18"></g>
                            <path d="M15.7890638,7.78085541 C14.7687027,6.00719256 12.9526785,5.04332527 11.0867972,4.98751188 C10.1012677,4.95810122 9.12393387,4.6947422 8.33168562,4.11989764 C7.21331793,3.30876522 6.68401414,2.18648147 5.88766804,0.211957223 L0.119964143,5.89723682 C3.29544541,7.09772617 4.32127031,7.66922862 5.3597302,10.837558 C5.4194903,11.6630615 5.66570194,12.4815466 6.11851279,13.2218261 C7.98507701,16.2761891 12.266291,16.8266362 14.8779783,14.2789385 C16.6233149,12.576797 16.9979254,9.8823802 15.7890638,7.78085541" id="Fill-17" fill="#D874F5" mask="url(#mask-4)"></path>
                        </g>
                        <path d="M8.61765173,5.72483113 C8.7156074,7.37875878 10.1010811,8.75230246 11.822,8.89857506 C12.7219236,8.97492058 13.5598322,8.72899343 14.2229709,8.26551534 C15.1038672,7.65035965 15.6768021,6.65212512 15.6768021,5.52687328 C15.6768021,3.65471906 14.0957695,2.13895652 12.1458175,2.13895652 C12.0718222,2.13895652 11.9953604,2.14132121 11.9217175,2.14638839 C10.0059443,2.26023104 8.50630644,3.83443506 8.61765173,5.72483113" id="Fill-20" fill="#EABCF7"></path>
                        <path d="M10.4735296,0.913580819 C10.8752167,0.891849661 11.313172,0.809271258 11.7521538,0.712985508 C11.9232301,0.796901213 12.1274951,0.846715716 12.3676862,0.846715716 C12.5243921,0.846715716 12.667754,0.824650232 12.7991406,0.786871448 L14.4154694,1.8684145 C15.609924,2.51265978 16.4204834,3.75267312 16.4204834,5.18224904 C16.4204834,6.30324251 15.919572,7.30956232 15.1271467,8.00261912 C14.950596,8.19151304 15.3060925,8.76153804 15.0943,8.91231885 L13.0034057,3.56912841 L10.5878086,1.25158392 C10.4950852,1.14794301 10.8995096,1.52305624 10.8345006,1.40537366 C10.873506,1.40437068 10.4341821,0.915586773 10.4735296,0.913580819" id="Fill-22" fill="#D874F5"></path>
                        <polygon id="Fill-24" fill="#EABCF7" points="13.7955207 5.70388407 16.0486427 13.5467247 11.2147142 13.5285132 11.3380542 7.52833951"></polygon>
                        <path d="M12.7020768,4.81265218 C12.7020768,5.5019546 13.2847928,6.06037682 14.0033566,6.06037682 C14.7222455,6.06037682 15.3049614,5.5019546 15.3049614,4.81265218 C15.3049614,4.12366138 14.7222455,3.56492754 14.0033566,3.56492754 C13.2847928,3.56492754 12.7020768,4.12366138 12.7020768,4.81265218" id="Fill-26" fill="#EABCF7"></path>
                    </g>
                </g>
                <mask id="mask-6" fill="white">
                    <use xlink:href="#path-5"></use>
                </mask>
                <ellipse stroke="#FFFFFF" stroke-width="2.06175857" cx="16.5326553" cy="16.4543687" rx="17.5635346" ry="17.485248"></ellipse>
            </g>
        </g>
    </g>
</svg>