<?xml version="1.0" encoding="UTF-8"?>
<svg width="39px" height="39px" viewBox="0 0 39 39" version="1.1" xmlns="http://www.w3.org/2000/svg" xmlns:xlink="http://www.w3.org/1999/xlink">
    <!-- Generator: Sketch 51.3 (57544) - http://www.bohemiancoding.com/sketch -->
    <title>Bitmap Copy</title>
    <desc>Created with Sketch.</desc>
    <defs>
        <circle id="path-1" cx="16.5" cy="16.5" r="16.5"></circle>
        <polygon id="path-3" points="0.0987969996 0.0845020921 11.3183749 0.0845020921 11.3183749 10.3182285 0.0987969996 10.3182285"></polygon>
        <circle id="path-5" cx="16.5" cy="16.5" r="16.5"></circle>
    </defs>
    <g id="Current" stroke="none" stroke-width="1" fill="none" fill-rule="evenodd">
        <g id="DET-Desktop-Index" transform="translate(-252.000000, -1038.000000)">
            <g id="Bitmap-Copy" transform="translate(255.000000, 1041.000000)">
                <mask id="mask-2" fill="white">
                    <use xlink:href="#path-1"></use>
                </mask>
                <use id="Mask" fill="#ECF3FA" xlink:href="#path-1"></use>
                <g id="Group-22" mask="url(#mask-2)">
                    <g transform="translate(-4.714286, 7.542857)">
                        <polygon id="Fill-1" fill="#AECBFF" points="17.1869388 9.3825784 17.1869388 16.4195122 22.6555102 16.4195122 22.6555102 10.8853772"></polygon>
                        <g id="Group-21" stroke-width="1" fill="none">
                            <path d="M54.3569114,42.5252352 C53.9016022,43.3179453 52.9427793,43.6792923 52.0467437,43.4917782 L41.3615603,41.2005643 C40.7774358,41.0717992 40.2240974,40.8460579 39.727065,40.5398384 C38.8346752,39.9837342 38.1209253,39.1668806 37.7045037,38.1725727 L31.7571285,27.8275047 C31.4209126,27.0243324 35.2262282,35.589223 35.4644149,36.4274033 C35.8565317,37.7935204 36.2482434,39.1632591 36.6403603,40.5297786 C37.0498955,41.9618879 37.4626714,43.3980211 37.868966,44.8337519 C38.2189545,46.0542035 38.5652974,47.2778743 38.9083996,48.4983259 C39.706406,51.345644 40.4833482,54.1965837 41.2218079,57.0612046 C42.3171425,61.2955642 42.4431222,63.917141 41.3789787,67.786532 C41.2181622,68.3704012 41.0326358,68.9824378 40.819159,69.62908 C39.1567133,74.6670143 37.0604276,79.5447969 35.0864758,84.467245 C34.6558764,85.5488718 34.2289228,86.6300962 33.8161469,87.7149421 C33.6654574,88.1112971 33.5184136,88.5072498 33.3713698,88.9076287 L36.4795437,91.3304244 C37.0430091,91.7758712 37.0952644,92.6100275 36.5876999,93.1174425 C36.2624212,93.4409648 35.7795666,93.5524271 35.3453215,93.3991161 L28.6011552,90.6841846 C28.5241901,90.6596388 28.7445533,89.1438322 29.0981876,87.0019054 C29.2274079,86.2264981 29.371211,85.3681983 29.5287869,84.467245 C30.3579844,79.6840242 31.463851,73.7491606 31.6915057,72.9665103 C31.9086282,72.2156488 32.0730904,71.4961739 32.1958295,70.7903802 C32.377305,69.7578451 32.4652072,68.7707802 32.4753342,67.8211376 C32.4826257,67.2895792 32.4615615,66.7717021 32.4194333,66.2638848 C32.3983691,66.034522 32.377305,65.8115974 32.3530003,65.5890752 C32.3250498,65.3669555 32.2970993,65.1480548 32.2622625,64.9287518 C32.1569418,64.2648067 32.0240758,63.6181645 31.8632593,62.9747415 C31.8069533,62.7630838 31.7510523,62.5510238 31.6915057,62.3385614 C31.5233977,61.7474492 31.3346307,61.16358 31.131686,60.5793084 C30.9777558,60.1447262 30.8165342,59.7069249 30.6484263,59.2723427 C30.5925253,59.1262748 30.5333837,58.983426 30.4770777,58.8377605 C30.2145863,58.170194 29.9379171,57.5058466 29.6580072,56.8318418 C29.5182549,56.4982597 29.3780974,56.1606537 29.2346993,55.8198286 C28.5975095,54.2835001 27.957079,52.701299 27.4077914,51.0011974 L23.235879,51.0011974 C23.2253469,51.2374009 23.2148149,51.4776283 23.2006371,51.7142341 C23.1763323,52.1729598 23.1516225,52.6280639 23.1204314,53.0871919 C23.1026079,53.3551843 23.0851895,53.6227742 23.067771,53.8867427 C23.0049837,54.846445 22.9280187,55.8097688 22.8368758,56.7690688 C22.7599107,57.6414523 22.6687679,58.5142382 22.5743844,59.3870241 C22.556966,59.5536139 22.5395476,59.7242277 22.5184834,59.894439 C22.4342269,60.6525435 22.3467298,61.410648 22.2523463,62.1715692 C22.2381685,62.258888 22.2280415,62.349426 22.2175095,62.4395616 C22.0425152,63.8302246 21.8496974,65.2176684 21.643512,66.6010884 C21.5839653,67.0079056 21.520773,67.4147228 21.4579857,67.8211376 L21.4510993,67.8211376 C21.1007057,70.1091324 20.7227666,72.3935056 20.3132314,74.6742573 C19.7291069,77.9420739 19.0988034,81.2066714 18.4620187,84.467245 C17.9439222,87.1165868 17.4189393,89.7659286 16.9117799,92.4188919 C16.8311691,92.8289282 16.7574447,93.2357454 16.6768339,93.6425626 L19.5784174,94.476719 C19.6168999,94.5326513 19.6484961,94.5881813 19.6800923,94.6505519 C19.872505,95.0678312 19.7708301,95.5720271 19.4313736,95.8846848 C19.3754726,95.9369956 19.3195717,95.9788443 19.2527336,96.0202905 C18.948519,96.2013665 19.1656415,96.2190717 18.8436034,96.0726014 L11.609291,95.718095 C11.7105609,94.3729021 11.8017037,93.0168448 11.8786688,91.6607874 C12.0151806,89.2790356 12.1200961,86.8803833 12.1938206,84.467245 C12.2671399,82.0826764 12.3129139,79.6872433 12.3372187,77.2849696 C12.3720555,74.1418941 12.3720555,70.9851374 12.3477507,67.8211376 C12.3198003,64.4350181 12.2707857,61.0420579 12.211239,57.6559384 C12.1865291,56.4318652 12.165465,55.2081944 12.1411603,53.9845237 C12.0852593,50.9247431 12.0257126,47.8722057 11.9803437,44.8337519 C11.8924415,39.2260321 11.843832,33.6665992 11.910265,28.2013258 L9.4429266,32.3978607 L7.73470692,35.3075494 L5.72591835,44.8337519 L3.71712978,54.359552 C3.79409486,55.423876 2.94342819,56.3344866 1.865512,56.3344866 C0.952058032,56.3344866 0.17511581,55.6741631 0.028072,54.7804529 L0.00700787302,44.8337519 L0.00012152381,40.6376194 C-0.00716990476,37.8353691 0.378060571,35.0608837 1.13758438,32.3978607 C2.23980533,28.5280672 4.14408343,24.8952821 6.79330248,21.7868122 C8.58537359,19.6903556 10.6257583,17.9278834 13.023018,16.9267348 C18.5215653,14.6286803 29.5672695,14.2391659 34.3512568,18.2618678 C38.0439603,21.3663137 39.3981406,26.8038222 41.2671768,31.326696 C41.6066333,32.1544142 41.9635082,32.9539649 42.3629164,33.7016072 C42.9122041,34.740983 43.8082396,35.561458 44.8999285,36.0238052 L53.3733787,39.5978413 C54.493018,40.0706506 54.9900504,41.419465 54.3569114,42.5252352" id="Fill-2" fill="#AECBFF"></path>
                            <path d="M33.8529686,31.3252877 L41.265921,31.3252877 C39.3964797,26.8024138 38.0422994,21.3669173 34.350001,18.2612642 C29.5664188,14.2393671 18.522335,14.6292838 13.0217623,16.9265336 C10.626528,17.928487 8.58411784,19.6889472 6.79366705,21.7858063 C4.1424226,24.8954833 2.24057498,28.5270613 1.13835403,32.3988666 L9.44126578,32.3988666 L12.1427401,53.9827129 L23.2014067,51.7140329 L26.6810385,51.0022034 L39.5755248,48.1331562 L33.8529686,31.3252877 Z" id="Fill-8" fill="#E4E9FF"></path>
                            <path d="M26.6139573,7.82549731 C26.387923,10.5484766 23.9849923,12.5725029 21.2397694,12.3479688 C20.1513211,12.258638 19.1698138,11.8260678 18.4005681,11.1677562 C18.1980284,10.9943258 18.0088564,10.8027877 17.8371027,10.5927396 C17.0253237,9.6374636 16.5789262,8.36309157 16.6907281,7.01347244 C16.8547853,5.03733066 18.1631916,3.42897418 19.915565,2.78514871 C20.2007408,2.675296 20.4988792,2.59803694 20.8030938,2.54451895 L20.8152462,2.54170221 C21.2187053,2.47691727 21.6343167,2.45599295 22.0572196,2.49059857 C22.1629453,2.49904877 22.2682659,2.51152289 22.3735865,2.52802092 C23.2461275,2.65437167 24.0376526,3.00083025 24.6975269,3.50542845 C25.9832488,4.49571249 26.7577605,6.09038769 26.6139573,7.82549731" id="Fill-14" fill="#AECBFF"></path>
                            <g id="Group-18" transform="translate(16.203175, 0.000000)">
                                <mask id="mask-4" fill="white">
                                    <use xlink:href="#path-3"></use>
                                </mask>
                                <g id="Clip-17"></g>
                                <path d="M9.7185021,0.107156701 C9.09630019,0.0133996175 8.44655289,0.210973556 8.01311797,0.663663335 C7.80571733,0.880552038 7.66272432,1.11071964 7.57117638,1.34531354 C7.42494273,1.7195371 7.04740876,1.95694773 6.64394971,1.97666489 C5.90873067,2.01207529 5.15771352,2.03139005 4.45368559,2.16337427 C4.45085003,2.16377666 4.4476094,2.16458145 4.44436876,2.16538623 C4.37631543,2.17343405 4.30785702,2.18027469 4.24020876,2.19073686 L4.22805638,2.19395598 C3.92384178,2.24707158 3.62570337,2.32473303 3.34052749,2.43458575 C1.58815416,3.07841121 0.27974781,4.6867677 0.115690667,6.66290948 C0.00429384127,8.01252861 0.450286222,9.28649824 1.26206527,10.2421767 C1.28353448,10.2711488 1.30905448,10.2969018 1.33052368,10.3182285 L4.86484114,6.83955909 L5.00094781,7.18843201 L5.00540368,7.22344002 L5.01512559,7.22424481 L5.04186083,7.29345604 C5.13016813,7.52000213 5.34648051,7.67250828 5.59114844,7.6805561 C5.94599797,7.69262783 6.23643987,7.40210159 6.2222621,7.04960715 L6.15056305,5.30001145 L6.15947479,5.19538981 C6.20524876,4.6425047 6.69701511,4.22884684 7.25318908,4.27391462 L8.42751416,4.37048844 C8.69000559,4.39181516 8.94561067,4.35399041 9.17772114,4.26345246 C9.34218337,4.20269143 9.49408813,4.11657977 9.63141003,4.01155574 C11.5988805,3.80673877 12.1129262,0.468503742 9.7185021,0.107156701" id="Fill-16" fill="#116CD7" mask="url(#mask-4)"></path>
                            </g>
                            <path d="M21.2927133,7.00184335 C21.2347869,7.69999158 20.617851,8.21947825 19.9154434,8.16193635 C19.2122257,8.10439445 18.6896733,7.49195548 18.7471945,6.79340485 C18.8051209,6.09525662 19.4220568,5.57617234 20.1248695,5.63331185 C20.8276822,5.69085375 21.3506396,6.30369511 21.2927133,7.00184335" id="Fill-19" fill="#AECBFF"></path>
                        </g>
                    </g>
                </g>
                <mask id="mask-6" fill="white">
                    <use xlink:href="#path-5"></use>
                </mask>
                <circle stroke="#FFFFFF" stroke-width="2.06175857" cx="16.5" cy="16.5" r="17.5308793"></circle>
            </g>
        </g>
    </g>
</svg>