<?xml version="1.0" encoding="UTF-8"?>
<svg width="198px" height="214px" viewBox="0 0 198 214" version="1.1" xmlns="http://www.w3.org/2000/svg" xmlns:xlink="http://www.w3.org/1999/xlink">
    <!-- Generator: Sketch 51.3 (57544) - http://www.bohemiancoding.com/sketch -->
    <title>Group 4</title>
    <desc>Created with Sketch.</desc>
    <defs>
        <path d="M7.08557569,0.46206291 L34.7538106,7.59562721 L34.7538106,98.5437203 L7.08557569,105.677285 C4.05328367,106.459085 0.96135048,104.634702 0.179549612,101.60241 C0.0603274698,101.139995 5.62424478e-16,100.664371 1.77635684e-15,100.186834 L1.77635684e-15,5.9525133 C1.39286426e-15,2.82105877 2.53854547,0.282513298 5.67,0.282513298 C6.14753684,0.282513298 6.62316082,0.342840768 7.08557569,0.46206291 Z" id="path-1"></path>
        <filter x="-77.7%" y="-22.7%" width="255.4%" height="151.1%" filterUnits="objectBoundingBox" id="filter-3">
            <feOffset dx="0" dy="3" in="SourceAlpha" result="shadowOffsetOuter1"></feOffset>
            <feGaussianBlur stdDeviation="8.5" in="shadowOffsetOuter1" result="shadowBlurOuter1"></feGaussianBlur>
            <feComposite in="shadowBlurOuter1" in2="SourceAlpha" operator="out" result="shadowBlurOuter1"></feComposite>
            <feColorMatrix values="0 0 0 0 1   0 0 0 0 1   0 0 0 0 1  0 0 0 0.283882473 0" type="matrix" in="shadowBlurOuter1"></feColorMatrix>
        </filter>
        <rect id="path-4" x="0" y="0" width="164.191176" height="157.182482" rx="10.4814"></rect>
        <filter x="-16.4%" y="-15.3%" width="132.9%" height="134.4%" filterUnits="objectBoundingBox" id="filter-6">
            <feOffset dx="0" dy="3" in="SourceAlpha" result="shadowOffsetOuter1"></feOffset>
            <feGaussianBlur stdDeviation="8.5" in="shadowOffsetOuter1" result="shadowBlurOuter1"></feGaussianBlur>
            <feComposite in="shadowBlurOuter1" in2="SourceAlpha" operator="out" result="shadowBlurOuter1"></feComposite>
            <feColorMatrix values="0 0 0 0 1   0 0 0 0 1   0 0 0 0 1  0 0 0 0.283882473 0" type="matrix" in="shadowBlurOuter1"></feColorMatrix>
        </filter>
    </defs>
    <g id="Current" stroke="none" stroke-width="1" fill="none" fill-rule="evenodd">
        <g id="DET-Desktop-Index" transform="translate(-164.000000, -1743.000000)">
            <g id="Group-4" transform="translate(181.000000, 1756.982693)">
                <g id="Rectangle-5-Copy">
                    <g transform="translate(82.000000, 165.517307) rotate(-90.000000) translate(-82.000000, -165.517307) translate(64.500000, 112.517307)">
                        <mask id="mask-2" fill="white">
                            <use xlink:href="#path-1"></use>
                        </mask>
                        <g id="Mask">
                            <use fill="black" fill-opacity="1" filter="url(#filter-3)" xlink:href="#path-1"></use>
                            <path stroke="#5869F8" stroke-width="3" d="M33.2538106,97.3814047 L33.2538106,8.75794287 L6.71108477,1.91456301 C6.37100187,1.82688112 6.02120435,1.7825133 5.67,1.7825133 C3.36697259,1.7825133 1.5,3.64948589 1.5,5.9525133 L1.5,100.186834 C1.5,100.538039 1.54436782,100.887836 1.63204971,101.227919 C2.20702496,103.458017 4.48098641,104.79976 6.71108477,104.224785 L33.2538106,97.3814047 Z" stroke-linejoin="square" fill="#FFFFFF" fill-rule="evenodd"></path>
                        </g>
                    </g>
                    <mask id="mask-5" fill="white">
                        <use xlink:href="#path-4"></use>
                    </mask>
                    <g id="Mask">
                        <use fill="black" fill-opacity="1" filter="url(#filter-6)" xlink:href="#path-4"></use>
                        <rect stroke="#5869F8" stroke-width="3" stroke-linejoin="square" fill="#FFFFFF" fill-rule="evenodd" x="1.5" y="1.5" width="161.191176" height="154.182482" rx="10.4814"></rect>
                    </g>
                    <rect id="Rectangle-5" fill="#5869F8" mask="url(#mask-5)" x="0" y="0" width="164.191176" height="20.5786644"></rect>
                    <ellipse id="Oval-Copy-3" fill="#3D4EDC" mask="url(#mask-5)" cx="82.1764706" cy="11.175603" rx="4.17647059" ry="4.175603"></ellipse>
                </g>
                <g id="book" transform="translate(52.000000, 58.000000)" fill="#FDC12C">
                    <path d="M60.5177937,13.1076115 C60.0019326,12.4084304 59.2753314,11.8720418 58.3387657,11.4973962 C58.3888003,12.3717005 58.3276469,13.0833435 58.1551761,13.6331123 L47.0816181,50.597752 C46.8843239,51.2468229 46.4534054,51.7648465 45.7897676,52.1519541 C45.1250956,52.539324 44.4362466,52.7328122 43.7225742,52.7328122 L9.6527336,52.7328122 C6.69978481,52.7328122 4.92827411,51.8602132 4.33742577,50.1112112 C4.0913898,49.436954 4.1038015,48.9005654 4.37466085,48.5009959 C4.64513235,48.1262191 5.11263947,47.9385028 5.77744082,47.9385028 L37.8541703,47.9385028 C40.1428349,47.9385028 41.7237744,47.5075816 42.5975059,46.6461329 C43.4718838,45.7846841 44.3513041,43.8681672 45.2366715,40.8973692 L55.3506504,6.96557484 C55.891852,5.11805778 55.6705101,3.49498701 54.6859784,2.09714962 C53.7014466,0.699312231 52.2990545,0 50.4778971,0 L22.3880363,0 C22.0681767,0 21.4404811,0.112026383 20.5053376,0.336866218 L20.5420555,0.224183944 C19.8529479,0.0746405289 19.2684347,0.00616538639 18.7886452,0.0181026239 C18.3089849,0.0310892888 17.8659133,0.174467317 17.4599475,0.449548493 C17.0539817,0.724236134 16.7276576,1.01728875 16.4817509,1.32923107 C16.2357149,1.64143574 15.9954969,2.04100525 15.7618727,2.52767724 C15.528507,3.01500513 15.331342,3.46455362 15.1714122,3.8764539 C15.0114823,4.28835418 14.8267291,4.7255719 14.6179282,5.18797588 C14.4084809,5.64985515 14.2060151,6.03053496 14.0089795,6.33001533 C13.8612028,6.52980008 13.6524019,6.79189459 13.3814132,7.11656122 C13.111071,7.44109666 12.8894706,7.72837743 12.7172583,7.97800999 C12.5451754,8.22764255 12.4341166,8.45235121 12.3852455,8.65226714 C12.3363745,8.87671344 12.3606807,9.20754545 12.4590693,9.64476317 C12.5573285,10.081325 12.5944343,10.3994327 12.5694816,10.5993486 C12.4712224,11.5480311 12.1327451,12.7525115 11.5546964,14.2135768 C10.9766476,15.6743799 10.4531586,16.7295792 9.98578071,17.3783877 C9.88739218,17.5030073 9.61692069,17.7839915 9.17384908,18.221078 C8.73077747,18.6579022 8.46017669,19.0383196 8.36204674,19.3628551 C8.26352892,19.4876058 8.25732307,19.8373275 8.3434292,20.4114955 C8.42953532,20.986057 8.46069385,21.385233 8.43587046,21.6099417 C8.33696478,22.4590597 8.02990465,23.5824718 7.51288003,24.9808339 C6.99585542,26.3788025 6.47934795,27.527532 5.96232334,28.4262355 C5.8887582,28.57591 5.67982802,28.8627973 5.33488636,29.2876842 C4.99072044,29.7123088 4.78114382,30.0618993 4.70744939,30.3357999 C4.65831977,30.5355847 4.66478419,30.8851752 4.72606693,31.3844403 C4.78722038,31.8837054 4.78114382,32.2580887 4.70744939,32.5075901 C4.51080162,33.4557478 4.14155373,34.5985743 3.60009359,35.9346267 C3.05876275,37.2697608 2.5050202,38.4133743 1.93860739,39.3611385 C1.7914771,39.6111646 1.58797704,39.9048731 1.32991725,40.241477 C1.07146958,40.5780809 0.868615963,40.8717894 0.720839235,41.1212907 C0.573321084,41.3709233 0.474803266,41.6330178 0.425544356,41.9078366 C0.400979546,42.0577736 0.438214627,42.3011096 0.536603157,42.6386317 C0.634862399,42.9752356 0.671968191,43.2436266 0.647015516,43.4440673 C0.622192128,43.7932643 0.573321084,44.2556682 0.499497364,44.8302298 C0.425544356,45.4038731 0.388438564,45.7404769 0.388438564,45.8401726 C-0.152892285,47.338755 -0.128586052,48.9243087 0.462391572,50.5978832 C1.15149915,52.5443088 2.37547315,54.1869251 4.13496002,55.5224528 C5.89457618,56.8585051 7.72142234,57.5255474 9.61653282,57.5255474 L43.6867613,57.5255474 C45.2856719,57.5255474 46.7930462,56.9823376 48.2081086,55.896836 C49.6230417,54.8105474 50.5646496,53.4691167 51.031381,51.8701828 L61.1819486,17.9393067 C61.7239259,16.1411128 61.5027133,14.5307663 60.5177937,13.1076115 Z M21.2434455,13.1825144 L22.0187885,10.7853597 C22.1170477,10.4608242 22.3199013,10.1799712 22.6276079,9.94280058 C22.9353145,9.7060235 23.2492269,9.58704466 23.5690866,9.58704466 L46.0121438,9.58704466 C46.356439,9.58704466 46.6023457,9.70549879 46.7501224,9.94280058 C46.8975113,10.1801024 46.9227226,10.4608242 46.8244633,10.7853597 L46.0484739,13.1825144 C45.9496975,13.507181 45.7476196,13.7873781 45.4391373,14.0252046 C45.1311721,14.2619817 44.8179062,14.3804358 44.4981758,14.3804358 L22.055765,14.3804358 C21.7110819,14.3804358 21.4651752,14.2623752 21.3173985,14.0252046 C21.169751,13.7873781 21.1451862,13.507181 21.2434455,13.1825144 Z M18.179955,22.7702149 L18.9551687,20.3734537 C19.053428,20.0489183 19.2565402,19.7680653 19.5639882,19.5308947 C19.8716947,19.2935929 20.1852193,19.1751388 20.5054668,19.1751388 L42.9477484,19.1751388 C43.2924314,19.1751388 43.5388553,19.2931993 43.6862441,19.5308947 C43.833633,19.7681965 43.8583271,20.0489183 43.75968,20.3734537 L42.9844663,22.7702149 C42.8863363,23.0947504 42.6832241,23.3758657 42.3757761,23.612774 C42.0676817,23.8500758 41.754545,23.9685299 41.4341682,23.9685299 L18.9918867,23.9685299 C18.6474622,23.9685299 18.4014262,23.8504693 18.253908,23.612774 C18.106002,23.3758657 18.0815665,23.0947504 18.179955,22.7702149 Z" id="Shape"></path>
                </g>
            </g>
        </g>
    </g>
</svg>