<?xml version="1.0" encoding="UTF-8"?>
<svg width="87px" height="87px" viewBox="0 0 87 87" version="1.1" xmlns="http://www.w3.org/2000/svg" xmlns:xlink="http://www.w3.org/1999/xlink">
    <!-- Generator: Sketch 51.3 (57544) - http://www.bohemiancoding.com/sketch -->
    <title>Group 10</title>
    <desc>Created with Sketch.</desc>
    <defs></defs>
    <g id="Current" stroke="none" stroke-width="1" fill="none" fill-rule="evenodd">
        <g id="DET-Desktop-Index" transform="translate(-306.000000, -1803.000000)">
            <g id="Group-10" transform="translate(306.367647, 1803.165175)">
                <path d="M43.2720588,86.6934307 C67.170557,86.6934307 86.5441176,67.2864452 86.5441176,43.3467153 C86.5441176,19.4069855 67.170557,0 43.2720588,0 C19.3735606,0 0,19.4069855 0,43.3467153 C0,67.2864452 19.3735606,86.6934307 43.2720588,86.6934307 Z" id="Oval" fill="#D874F5"></path>
                <g id="infinity-2" transform="translate(16.985294, 30.788321)" fill="#FFFFFF" fill-rule="nonzero">
                    <path d="M40.3637425,0.0348314099 C37.2388076,0.0348314099 34.2875141,1.28447361 32.1716728,3.46012925 L26.0411242,9.03869857 L26.0302398,9.02750649 L22.7425479,12.0064811 L22.7642149,12.0287607 L16.9158464,17.3619411 C15.5270203,18.7789415 13.6824746,19.5599809 11.7185059,19.5599809 C7.66046461,19.5599809 4.36188831,16.1793468 4.36188831,12.0288653 C4.36188831,7.87838376 7.66046461,4.49774963 11.7185059,4.49774963 C13.6824746,4.49774963 15.5270203,5.27878908 17.0135006,6.79609968 L19.476523,9.03869857 L22.7533306,6.05972393 L20.0081281,3.56054412 C17.7946326,1.29566569 14.8541217,0.0460234845 11.7184042,0.0460234845 C5.25166062,0.0348314099 0,5.41267558 0,12.0288653 C0,18.645055 5.25166062,24.0228991 11.7185059,24.0228991 C14.8434408,24.0228991 17.7839517,22.7732569 19.9105756,20.6087934 L26.0411242,15.019032 L26.0520086,15.0302241 L29.3288161,12.0400574 L29.3179318,12.0288653 L35.1663003,6.70687688 C36.5552281,5.27878908 38.3997738,4.49774963 40.3637425,4.49774963 C44.4217838,4.49774963 47.7203601,7.87838376 47.7203601,12.0288653 C47.7203601,16.1793468 44.4217838,19.5599809 40.3637425,19.5599809 C38.3997738,19.5599809 36.5552281,18.7789415 35.0687478,17.2727183 L32.6057254,15.0301195 L29.3288161,18.0202862 L32.0740186,20.519466 C34.2875141,22.7843444 37.228025,24.0227945 40.3529599,24.0227945 C46.8305878,24.0228991 52.0822484,18.645055 52.0822484,12.0288653 C52.0822484,5.41267558 46.8305878,0.0348314099 40.3637425,0.0348314099 Z" id="Shape"></path>
                </g>
            </g>
        </g>
    </g>
</svg>