<svg width="275px" height="42px" viewBox="0 0 275 42" version="1.1" xmlns="http://www.w3.org/2000/svg" xmlns:xlink="http://www.w3.org/1999/xlink">
    <!-- Generator: Sketch 51.3 (57544) - http://www.bohemiancoding.com/sketch -->
    <title>Group 35</title>
    <desc>Created with Sketch.</desc>
    <defs></defs>
    <g id="Current" stroke="none" stroke-width="1" fill="none" fill-rule="evenodd">
        <g id="DET-Desktop-Index" transform="translate(-915.000000, -1168.000000)">
            <g id="Group-35" transform="translate(916.000000, 1168.000000)">
                <circle id="Oval-4-Copy-2" fill="#A2CDFD" cx="16" cy="37" r="5"></circle>
                <circle id="Oval-4-Copy-3" fill="#A2CDFD" cx="76" cy="37" r="5"></circle>
                <circle id="Oval-4-Copy-4" fill="#A2CDFD" cx="136" cy="37" r="5"></circle>
                <circle id="Oval-4-Copy-5" fill="#A2CDFD" cx="196" cy="37" r="5"></circle>
                <circle id="Oval-4-Copy-6" fill="#A2CDFD" cx="257" cy="37" r="5"></circle>
                <circle id="Oval-4-Copy-7" fill="#A2CDFD" cx="227" cy="5" r="5"></circle>
                <circle id="Oval-4-Copy-8" fill="#A2CDFD" cx="166" cy="5" r="5"></circle>
                <circle id="Oval-4-Copy-9" fill="#A2CDFD" cx="106" cy="5" r="5"></circle>
                <circle id="Oval-4-Copy-10" fill="#A2CDFD" cx="46" cy="5" r="5"></circle>
                <path d="M0,19.6593873 C4.77098023,31.789421 10.0821822,37.8544379 15.933606,37.8544379 C21.7850297,37.8544379 26.9809942,31.789421 31.5214994,19.6593873 C36.1505736,9.88646242 40.7664358,5 45.369086,5 C52.2730614,5 57.7530827,13.6215283 61.4179295,21.4272189 C65.0827763,29.2329096 69.019936,37.8544379 74.8750298,37.8544379" id="Path-14" stroke="#A2CDFD" stroke-width="2" stroke-linejoin="round"></path>
                <path d="M257,20 C261.77098,32.1300337 267.082182,38.1950506 272.933606,38.1950506" id="Path-14-Copy-4" stroke="#A2CDFD" stroke-width="2" stroke-linejoin="round" transform="translate(264.966803, 29.097525) scale(-1, 1) translate(-264.966803, -29.097525) "></path>
                <path d="M77,37.8544379 C82.8514238,37.8544379 88.0473882,31.789421 92.5878934,19.6593873 C97.2169676,9.88646242 101.83283,5 106.43548,5 C113.339455,5 118.819477,13.6215283 122.484324,21.4272189 C126.14917,29.2329096 130.08633,37.8544379 135.941424,37.8544379" id="Path-14-Copy" stroke="#A2CDFD" stroke-width="2" stroke-linejoin="round"></path>
                <path d="M137,37.8544379 C142.851424,37.8544379 148.047388,31.789421 152.587893,19.6593873 C157.216968,9.88646242 161.83283,5 166.43548,5 C173.339455,5 178.819477,13.6215283 182.484324,21.4272189 C186.14917,29.2329096 190.08633,37.8544379 195.941424,37.8544379" id="Path-14-Copy-2" stroke="#A2CDFD" stroke-width="2" stroke-linejoin="round"></path>
                <path d="M197,37.8544379 C202.851424,37.8544379 208.047388,31.789421 212.587893,19.6593873 C217.216968,9.88646242 221.83283,5 226.43548,5 C233.339455,5 238.819477,13.6215283 242.484324,21.4272189 C246.14917,29.2329096 250.08633,37.8544379 255.941424,37.8544379" id="Path-14-Copy-3" stroke="#A2CDFD" stroke-width="2" stroke-linejoin="round"></path>
            </g>
        </g>
    </g>
</svg>