<?xml version="1.0" encoding="UTF-8"?>
<svg width="39px" height="39px" viewBox="0 0 39 39" version="1.1" xmlns="http://www.w3.org/2000/svg" xmlns:xlink="http://www.w3.org/1999/xlink">
    <!-- Generator: Sketch 51.3 (57544) - http://www.bohemiancoding.com/sketch -->
    <title>Group 14 Copy</title>
    <desc>Created with Sketch.</desc>
    <defs></defs>
    <g id="Current" stroke="none" stroke-width="1" fill="none" fill-rule="evenodd">
        <g id="DET-Desktop-Index" transform="translate(-903.000000, -2233.000000)">
            <g id="Group-14-Copy" transform="translate(903.000000, 2233.000000)">
                <circle id="Oval-4-Copy" fill="#31C363" cx="19.5" cy="19.5" r="19.5"></circle>
                <path d="M21.905,23.2336 C21.905,20.0044 14.4872,20.8 14.4872,15.4648 C14.4872,13.4056 15.9614,11.6038 18.3482,11.089 L18.3482,9.1 L21.0392,9.1 L21.0392,11.0422 C22.49,11.2762 23.6834,11.8612 24.4556,12.7036 L22.9112,14.8564 C22.1156,14.0842 21.32,13.6396 20.0096,13.6396 C18.3482,13.6396 17.5292,14.365 17.5292,15.4414 C17.5292,18.8344 24.947,17.758 24.947,23.2102 C24.947,25.5502 23.3558,27.235 21.0392,27.703 L21.0392,29.926 L18.3482,29.926 L18.3482,27.7264 C16.6166,27.4456 14.9318,26.6032 14.3,25.2694 L15.938,23.3038 C16.8974,24.544 18.4418,25.1524 19.7054,25.1524 C21.0626,25.1524 21.905,24.4738 21.905,23.2336 Z" id="$-copy" fill="#FFFFFF"></path>
            </g>
        </g>
    </g>
</svg>