<svg xmlns="http://www.w3.org/2000/svg" width="41" height="46" viewBox="0 0 41 46">
    <g fill="none" fill-rule="evenodd" transform="translate(-196 -3846)">
        <path fill="#FFF" d="M0 0h1366v4500H0z"/>
        <rect width="1492" height="586" x="-62" y="3673" fill="#B6CAFB" opacity=".12" rx="10.498"/>
        <rect width="78" height="78" x="176" y="3829" stroke="#5869F8" stroke-width="2" opacity=".3" rx="20.9"/>
        <g fill="#5869F8" fill-rule="nonzero">
            <path d="M223.724 3860.45a.902.902 0 0 0-.73-.612l-3.928-.567-1.758-3.54a.904.904 0 1 0-1.62 0l-1.755 3.542-3.929.569a.895.895 0 1 0-.5 1.533l2.844 2.755-.67 3.893a.896.896 0 0 0 .89 1.05.906.906 0 0 0 .42-.104l3.513-1.838 3.515 1.837c.304.159.673.132.95-.07a.896.896 0 0 0 .36-.878l-.672-3.892 2.842-2.758a.896.896 0 0 0 .228-.92zm-4.671 2.721a.896.896 0 0 0-.26.796l.443 2.563-2.315-1.21a.907.907 0 0 0-.84 0l-2.314 1.212.44-2.564a.896.896 0 0 0-.259-.795l-1.873-1.816 2.588-.374a.903.903 0 0 0 .68-.492l1.156-2.333 1.158 2.332a.903.903 0 0 0 .68.492l2.587.373-1.871 1.816z"/>
            <path d="M236.796 3885.474l-7.465-12.916a16.22 16.22 0 0 0 3.605-10.206c0-9.017-7.373-16.352-16.436-16.352-9.063 0-16.436 7.335-16.436 16.352a16.22 16.22 0 0 0 3.604 10.206l-7.464 12.916a.895.895 0 0 0 .033.949c.192.284.53.435.87.39l5.826-.779 2.236 5.41a.903.903 0 0 0 .835.556c.321 0 .62-.17.782-.45l7.535-12.984.004-.006a16.6 16.6 0 0 0 4.35 0l.004.006 7.535 12.985a.904.904 0 0 0 1.617-.108l2.236-5.409 5.826.779a.905.905 0 0 0 .87-.39.896.896 0 0 0 .033-.949zm-30.656 3.595l-1.627-3.937 1.46-2.37a.896.896 0 0 0-.298-1.236.906.906 0 0 0-1.242.296l-1.475 2.396-4.275.571 6.256-10.826a16.457 16.457 0 0 0 7.509 4.237l-6.308 10.87zm10.36-12.163c-8.067 0-14.63-6.529-14.63-14.554 0-8.026 6.563-14.555 14.63-14.555s14.63 6.53 14.63 14.555c0 8.025-6.563 14.554-14.63 14.554zm13.542 7.312l-1.476-2.396a.906.906 0 0 0-1.242-.296.896.896 0 0 0-.298 1.235l1.46 2.371-1.627 3.937-6.307-10.87c2.88-.728 5.459-2.216 7.508-4.236l6.256 10.826-4.274-.57z"/>
            <path d="M216.5 3850.672c-2.016 0-4.004.517-5.75 1.495a.896.896 0 0 0-.345 1.223.905.905 0 0 0 1.23.342 9.977 9.977 0 0 1 4.865-1.263c5.477 0 9.934 4.433 9.934 9.883a9.75 9.75 0 0 1-.964 4.252.896.896 0 0 0 .814 1.286c.337 0 .66-.189.816-.512a11.527 11.527 0 0 0 1.14-5.026c0-6.44-5.267-11.68-11.74-11.68zM224.903 3869.218a.906.906 0 0 0-1.277.019l-.02.02a.895.895 0 0 0 .015 1.27.903.903 0 0 0 1.277-.015l.024-.024a.895.895 0 0 0-.019-1.27zM222.513 3871.367a.905.905 0 0 0-1.226-.353 9.983 9.983 0 0 1-4.787 1.22c-5.478 0-9.934-4.433-9.934-9.882a9.76 9.76 0 0 1 .888-4.092.897.897 0 0 0-.447-1.19.905.905 0 0 0-1.196.445 11.536 11.536 0 0 0-1.051 4.837c0 6.44 5.266 11.68 11.74 11.68 1.978 0 3.935-.5 5.658-1.445a.896.896 0 0 0 .355-1.22zM209.185 3854.346a.906.906 0 0 0-1.276.045l-.02.022a.895.895 0 0 0 .05 1.27.903.903 0 0 0 1.276-.05l.015-.017a.895.895 0 0 0-.045-1.27z"/>
        </g>
    </g>
</svg>
