<svg xmlns="http://www.w3.org/2000/svg" width="46" height="47" viewBox="0 0 46 47">
    <g fill="none" fill-rule="evenodd" transform="translate(-921 -2546)">
        <rect width="78" height="78" x="905" y="2530" stroke="#5869F8" stroke-width="2" opacity=".3" rx="20.9"/>
        <g fill="#5869F8" fill-rule="nonzero">
            <path d="M928.643 2587.68a.896.896 0 0 0-.635-.269.896.896 0 0 0-.635.269.933.933 0 0 0 0 1.295c.167.17.399.269.635.269a.896.896 0 0 0 .635-.269.932.932 0 0 0 0-1.295zM963.184 2562.76a.894.894 0 0 0-.635-.268.896.896 0 0 0-.636.268.933.933 0 0 0 0 1.296c.168.17.4.268.636.268a.895.895 0 0 0 .635-.268.93.93 0 0 0 0-1.296z"/>
            <path d="M966.736 2546.268a.89.89 0 0 0-.635-.268l-22.101.001a.907.907 0 0 0-.899.916v2.62l-8.516 2.327a.918.918 0 0 0-.635 1.122l4.414 16.798-3.819 3.894a2.68 2.68 0 0 0-2.224-1.2h-8.625c-1.486 0-2.695 1.233-2.695 2.748v14.934c0 1.515 1.209 2.748 2.695 2.748h8.625c1.262 0 2.324-.89 2.615-2.087l1.069.95a4.476 4.476 0 0 0 2.975 1.137h27.121c.496 0 .898-.41.898-.916v-45.076a.926.926 0 0 0-.263-.648zm-33.517 43.892a.909.909 0 0 1-.899.916h-8.624a.908.908 0 0 1-.899-.916v-14.933c0-.506.403-.917.899-.917h3.414v10.554c0 .506.402.917.898.917s.899-.41.899-.917v-10.554h3.414c.495 0 .898.411.898.917v14.933zm2.7-36.763l7.182-1.963v3.395l-.602.165a.9.9 0 0 0-.545.427.932.932 0 0 0-.09.695c.345 1.314-.422 2.669-1.71 3.021a.9.9 0 0 0-.546.428.932.932 0 0 0-.09.696l3.503 13.224h-1.803l-.93-3.707a.923.923 0 0 0-.15-.322l-4.22-16.059zm7.182 5.634v7.73l-1.638-6.187c.684-.36 1.245-.9 1.638-1.543zm12.908 32.045H938.98a2.7 2.7 0 0 1-1.795-.686l-2.17-1.93v-12.67l3.923-4 .712 2.838c.101.405.46.689.87.689l17.664.001c.693 0 1.257.575 1.257 1.283 0 .707-.564 1.282-1.257 1.282h-9.051a.908.908 0 0 0-.899.917c0 .506.403.916.899.916h11.863c.693 0 1.258.575 1.258 1.282 0 .708-.565 1.283-1.258 1.283h-11.863a.908.908 0 0 0-.899.916c0 .506.403.916.899.916h9.94c.694 0 1.258.576 1.258 1.283s-.564 1.283-1.258 1.283h-9.94a.908.908 0 0 0-.899.916c0 .506.403.916.899.916h6.876c.693 0 1.258.575 1.258 1.283 0 .707-.565 1.282-1.258 1.282zm9.194 0h-6.412a3.147 3.147 0 0 0 0-2.565h.282c1.685 0 3.055-1.398 3.055-3.115 0-.501-.117-.975-.324-1.394 1.293-.363 2.246-1.572 2.246-3.004 0-.695-.224-1.337-.603-1.855v-11.612a.908.908 0 0 0-.898-.916.908.908 0 0 0-.899.916v10.425a2.999 2.999 0 0 0-.654-.073h-.03c.174-.391.272-.825.272-1.282 0-1.718-1.37-3.115-3.054-3.115h-1.445a4.393 4.393 0 0 0 2.61-4.032c0-2.418-1.928-4.384-4.299-4.384-2.37 0-4.3 1.966-4.3 4.384a4.393 4.393 0 0 0 2.611 4.032h-4.91v-17.42c1.604-.357 2.87-1.649 3.22-3.285h6.758c.35 1.636 1.616 2.928 3.221 3.284v2.849c0 .506.403.916.899.916s.898-.41.898-.916v-3.667a.908.908 0 0 0-.898-.916c-1.334 0-2.42-1.106-2.42-2.467a.908.908 0 0 0-.898-.916h-8.362a.908.908 0 0 0-.898.916c0 1.36-1.085 2.467-2.42 2.467a.908.908 0 0 0-.898.916v18.239h-1.755v-25.653h20.305v43.243zm-10.153-19.07c-1.38 0-2.502-1.144-2.502-2.552 0-1.407 1.122-2.552 2.502-2.552 1.38 0 2.503 1.145 2.503 2.552s-1.122 2.552-2.503 2.552z"/>
        </g>
    </g>
</svg>
