<svg xmlns="http://www.w3.org/2000/svg" width="51" height="49" viewBox="0 0 51 49">
    <g fill="none" fill-rule="evenodd" transform="translate(-87 -2546)">
        <g fill="#5869F8" fill-rule="nonzero">
            <path d="M112.5 2575.26c-5.353 0-9.709 4.409-9.709 9.827a9.857 9.857 0 0 0 3.602 7.634c.042.04.087.077.135.11a9.587 9.587 0 0 0 5.972 2.084c2.25 0 4.324-.78 5.972-2.085a.987.987 0 0 0 .135-.11 9.858 9.858 0 0 0 3.602-7.633c0-5.418-4.356-9.827-9.709-9.827zm0 17.638c-1.575 0-3.04-.48-4.262-1.304.655-1.703 2.354-2.884 4.262-2.884 1.908 0 3.607 1.181 4.262 2.884a7.605 7.605 0 0 1-4.262 1.304zm-1.755-7.81c0-.886.712-1.607 1.587-1.607s1.587.72 1.587 1.606c0 .886-.712 1.607-1.587 1.607s-1.587-.72-1.587-1.607zm7.577 5.117a6.578 6.578 0 0 0-3.135-2.935 3.632 3.632 0 0 0 .724-2.183c0-1.997-1.605-3.622-3.579-3.622-1.973 0-3.579 1.625-3.579 3.622 0 .873.306 1.674.815 2.3a6.571 6.571 0 0 0-2.89 2.818 7.83 7.83 0 0 1-1.895-5.118c0-4.306 3.462-7.81 7.717-7.81 4.255 0 7.716 3.504 7.716 7.81a7.83 7.83 0 0 1-1.894 5.118zM96.709 2546.085c-5.354 0-9.709 4.409-9.709 9.828a9.858 9.858 0 0 0 3.602 7.633c.041.04.086.076.134.109a9.587 9.587 0 0 0 5.973 2.085c2.25 0 4.324-.78 5.972-2.085a.987.987 0 0 0 .134-.11 9.858 9.858 0 0 0 3.602-7.633c0-5.418-4.355-9.827-9.708-9.827zm0 17.638a7.607 7.607 0 0 1-4.263-1.304c.655-1.703 2.354-2.884 4.263-2.884 1.908 0 3.607 1.181 4.262 2.884a7.605 7.605 0 0 1-4.262 1.304zm-1.755-7.81c0-.886.712-1.607 1.587-1.607s1.587.72 1.587 1.607c0 .885-.712 1.606-1.587 1.606s-1.587-.72-1.587-1.606zm7.576 5.117a6.578 6.578 0 0 0-3.135-2.935 3.632 3.632 0 0 0 .725-2.182c0-1.998-1.605-3.623-3.58-3.623-1.973 0-3.578 1.625-3.578 3.623 0 .872.306 1.673.815 2.298a6.57 6.57 0 0 0-2.89 2.82 7.83 7.83 0 0 1-1.895-5.118c0-4.307 3.462-7.811 7.717-7.811 4.255 0 7.716 3.504 7.716 7.81a7.83 7.83 0 0 1-1.895 5.118zM128.291 2546.085c-5.353 0-9.708 4.409-9.708 9.828a9.858 9.858 0 0 0 3.602 7.633.99.99 0 0 0 .134.109 9.587 9.587 0 0 0 5.972 2.085c2.25 0 4.324-.78 5.972-2.085a.997.997 0 0 0 .135-.11 9.857 9.857 0 0 0 3.602-7.632c0-5.42-4.355-9.828-9.709-9.828zm0 17.638a7.606 7.606 0 0 1-4.262-1.304c.655-1.703 2.354-2.884 4.262-2.884 1.909 0 3.608 1.181 4.263 2.884a7.605 7.605 0 0 1-4.263 1.304zm-1.755-7.81c0-.886.712-1.607 1.588-1.607.875 0 1.587.72 1.587 1.607 0 .885-.712 1.606-1.587 1.606-.876 0-1.588-.72-1.588-1.606zm7.577 5.117a6.578 6.578 0 0 0-3.135-2.935 3.632 3.632 0 0 0 .725-2.182c0-1.998-1.606-3.623-3.58-3.623-1.973 0-3.579 1.625-3.579 3.623 0 .872.306 1.673.815 2.298a6.57 6.57 0 0 0-2.89 2.82 7.83 7.83 0 0 1-1.894-5.118c0-4.307 3.461-7.811 7.716-7.811 4.255 0 7.717 3.504 7.717 7.81a7.83 7.83 0 0 1-1.895 5.118zM101.043 2580.525l-.012-.01a.988.988 0 0 0-1.404.118 1.017 1.017 0 0 0 .108 1.414l.013.01a.985.985 0 0 0 1.403-.118 1.017 1.017 0 0 0-.108-1.414zM99.1 2578.503l-.013-.015a.986.986 0 0 0-1.4-.121c-.42.356-.476.992-.125 1.42l.002.001a.99.99 0 0 0 1.402.135c.424-.355.484-.99.133-1.42zM97.484 2576.191a.991.991 0 0 0-1.38-.364 1.013 1.013 0 0 0-.34 1.382l.002.002a.993.993 0 0 0 1.363.36c.474-.282.633-.9.355-1.38zM95.418 2570.934a.996.996 0 0 0-1.183-.773c-.538.117-.88.653-.764 1.197l.005.021a1 1 0 0 0 1.192.76c.536-.123.872-.662.75-1.205zM96.244 2573.644l-.006-.014a.992.992 0 0 0-1.295-.558c-.51.208-.757.795-.552 1.312l.002.004a.997.997 0 0 0 1.293.565c.511-.205.761-.792.558-1.309zM125.373 2580.633a.988.988 0 0 0-1.415-.108c-.413.361-.462.992-.11 1.414a.989.989 0 0 0 1.416.108c.413-.36.462-.991.11-1.414zM130.058 2573.071a.992.992 0 0 0-1.296.559l-.006.014a1.008 1.008 0 0 0 .558 1.303c.12.049.244.072.366.072a1.012 1.012 0 0 0 .378-1.947zM127.317 2578.367a.988.988 0 0 0-1.404.121l-.012.015a1.013 1.013 0 0 0 .132 1.413.98.98 0 0 0 .636.233c.285 0 .57-.123.767-.361a1.017 1.017 0 0 0-.12-1.42zM130.77 2570.164a.998.998 0 0 0-1.188.766v.002a1.009 1.009 0 0 0 .972 1.232 1 1 0 0 0 .97-.785l.005-.02a1.006 1.006 0 0 0-.76-1.195zM128.895 2575.83a.99.99 0 0 0-1.38.361c-.277.48-.119 1.1.356 1.381a.991.991 0 0 0 1.362-.359 1.015 1.015 0 0 0-.338-1.384zM131.025 2567.179a1 1 0 0 0-1.05.951v.004a1.002 1.002 0 0 0 .995 1.061c.525 0 .964-.418.994-.955.03-.556-.39-1.03-.94-1.061zM118.698 2547.908l-.01-.004a.993.993 0 0 0-1.254.65 1.01 1.01 0 0 0 .642 1.27l.01.002c.101.034.204.05.306.05.42 0 .811-.272.948-.7a1.01 1.01 0 0 0-.642-1.268zM115.637 2547.18l-.026-.004a1 1 0 0 0-1.134.85 1.004 1.004 0 0 0 1 1.157 1 1 0 0 0 .981-.845 1.007 1.007 0 0 0-.821-1.158zM112.488 2546.952h-.025c-.55.008-.991.466-.983 1.023a1 1 0 0 0 .993.994h.015c.55 0 .996-.452.996-1.009 0-.557-.446-1.008-.996-1.008zM107.529 2548.585a.994.994 0 0 0-1.242-.673l-.014.005a1.008 1.008 0 0 0-.656 1.259 1 1 0 0 0 1.248.666 1.01 1.01 0 0 0 .664-1.257zM110.488 2548.064a.996.996 0 0 0-1.14-.834l.145.997-.147-.997c-.544.082-.92.595-.838 1.146a1 1 0 0 0 1.132.848l.022-.003c.543-.09.914-.607.826-1.157zM95.004 2567.91a.996.996 0 0 0-1.183-.772c-.538.117-.88.653-.764 1.197l.004.021a1 1 0 0 0 1.193.76c.536-.123.872-.662.75-1.205z"/>
        </g>
        <rect width="78" height="78" x="73" y="2530" stroke="#5869F8" stroke-width="2" opacity=".3" rx="20.9"/>
    </g>
</svg>
