<svg xmlns="http://www.w3.org/2000/svg" width="11" height="14" viewBox="0 0 11 14">
    <defs>
        <linearGradient id="a" x1="100%" x2="0%" y1="75.729%" y2="24.239%">
            <stop offset="0%" stop-color="#FBAB7E"/>
            <stop offset="100%" stop-color="#F7CE68"/>
        </linearGradient>
    </defs>
    <path fill="url(#a)" fill-rule="evenodd" d="M343.304 517.004c-2.74.097-5.015 2.267-5.278 5.037a5.704 5.704 0 0 0 .11 1.78c.085.385.212.758.37 1.108.552 1.326 1.827 3.545 4.688 5.96.175.148.432.148.61 0 2.861-2.412 4.136-4.631 4.69-5.963.161-.35.286-.72.37-1.108a5.699 5.699 0 0 0 .136-1.234c0-3.152-2.57-5.692-5.696-5.58zm.195 8.358c-1.476 0-2.671-1.214-2.671-2.712 0-1.499 1.195-2.713 2.671-2.713 1.476 0 2.671 1.214 2.671 2.713 0 1.498-1.195 2.712-2.671 2.712z" transform="translate(-338 -517)"/>
</svg>
