<svg xmlns="http://www.w3.org/2000/svg" width="46" height="46" viewBox="0 0 46 46">
    <g fill="none" fill-rule="evenodd">
        <g fill="#5869F8" fill-rule="nonzero">
            <path d="M7.1 31.355a.904.904 0 0 0-1.27 0 .907.907 0 0 0-.264.636c0 .236.096.467.263.635a.905.905 0 0 0 .635.263.904.904 0 0 0 .635-.263.907.907 0 0 0 .264-.635.908.908 0 0 0-.264-.636zM35.1 21.428a11.975 11.975 0 0 0-6.697-2.035h-.524a7.586 7.586 0 0 0 2.7-5.803V7.826a5.1 5.1 0 0 0 .607-2.42V.899A.899.899 0 0 0 30.287 0H19.833a5.263 5.263 0 0 0-5.258 5.258v1.48c0 .879.3 1.687.801 2.331v4.521a7.586 7.586 0 0 0 2.7 5.803h-.48c-2.732 0-5.408.942-7.534 2.651a12.08 12.08 0 0 0-4.184 6.647.898.898 0 1 0 1.75.406c1-4.3 4.575-7.402 8.89-7.849l5.847 5.848a.896.896 0 0 0 1.27 0l5.848-5.848c1.651.173 3.23.742 4.616 1.672a.898.898 0 1 0 1.002-1.492zM16.373 6.738v-1.48a3.465 3.465 0 0 1 3.46-3.461h9.557v3.61a3.34 3.34 0 0 1-3.336 3.336h-7.678a2.006 2.006 0 0 1-2.003-2.004zM23 25.19l-4-4h3.943l.034.001H27L23 25.19zm.012-5.797h-.07a5.81 5.81 0 0 1-5.769-5.803v-3.247c.378.127.782.196 1.202.196h7.678a5.1 5.1 0 0 0 2.729-.788v3.839a5.81 5.81 0 0 1-5.77 5.803zM24.797 33.262a3.06 3.06 0 0 0-2.92 2.156h-9.28a3.06 3.06 0 0 0-2.92-2.156 3.058 3.058 0 0 0-3.054 3.055c0 .515.13 1.001.356 1.428l-2.496 2.496a3.035 3.035 0 0 0-1.428-.356A3.058 3.058 0 0 0 0 42.94a3.058 3.058 0 0 0 3.055 3.054 3.058 3.058 0 0 0 3.054-3.054c0-.516-.129-1.002-.355-1.429l2.495-2.495a3.06 3.06 0 0 0 4.348-1.8l9.28-.001a3.06 3.06 0 0 0 2.92 2.156 3.058 3.058 0 0 0 3.055-3.055 3.058 3.058 0 0 0-3.055-3.054zM3.055 44.198a1.26 1.26 0 0 1-1.258-1.258 1.26 1.26 0 0 1 1.258-1.258 1.26 1.26 0 0 1 1.257 1.258 1.26 1.26 0 0 1-1.257 1.258zm6.623-6.624a1.26 1.26 0 0 1-1.258-1.257 1.26 1.26 0 0 1 1.258-1.258 1.26 1.26 0 0 1 1.258 1.258 1.26 1.26 0 0 1-1.258 1.257zm15.119 0a1.26 1.26 0 0 1-1.258-1.257 1.26 1.26 0 0 1 1.258-1.258 1.26 1.26 0 0 1 1.258 1.258 1.26 1.26 0 0 1-1.258 1.257zM29.477 31.996a.906.906 0 0 0-.635-.263.905.905 0 0 0-.636.263.905.905 0 0 0-.264.635.902.902 0 0 0 1.535.635.904.904 0 0 0 0-1.27zM45.102 15.458h-3.225a.899.899 0 0 0 0 1.796h1.07L30.664 29.54a.899.899 0 0 0 1.27 1.27l12.27-12.27v1.04a.899.899 0 0 0 1.797 0v-3.224a.898.898 0 0 0-.898-.898z"/>
            <path d="M21.151 12.767a.906.906 0 0 0-.635-.263.902.902 0 0 0-.635 1.535.903.903 0 0 0 1.27 0 .907.907 0 0 0 .263-.636.906.906 0 0 0-.263-.636zM26.094 12.767a.905.905 0 0 0-.635-.263.905.905 0 0 0-.635.263.906.906 0 0 0-.263.636c0 .236.096.468.263.635a.905.905 0 0 0 .635.262.904.904 0 0 0 .635-.262.905.905 0 0 0 .263-.635.905.905 0 0 0-.263-.636zM38.094 30.188c-4.36 0-7.907 3.546-7.907 7.906 0 4.36 3.547 7.906 7.907 7.906C42.454 46 46 42.453 46 38.094c0-4.36-3.547-7.907-7.906-7.907zm0 14.015a6.116 6.116 0 0 1-6.11-6.11c0-3.368 2.741-6.109 6.11-6.109 3.368 0 6.11 2.741 6.11 6.11 0 3.368-2.742 6.11-6.11 6.11z"/>
            <path d="M38.094 37.252c-.415 0-.766-.28-.766-.612 0-.332.35-.612.766-.612.415 0 .765.28.765.612a.899.899 0 0 0 1.797 0c0-1.032-.694-1.914-1.667-2.257a.898.898 0 0 0-1.79 0c-.973.343-1.668 1.225-1.668 2.257 0 1.328 1.15 2.41 2.563 2.41.415 0 .765.28.765.611 0 .332-.35.612-.765.612-.415 0-.766-.28-.766-.612a.899.899 0 0 0-1.797 0c0 1.034.698 1.918 1.673 2.259a.898.898 0 0 0 1.78 0c.975-.34 1.673-1.225 1.673-2.259 0-1.328-1.15-2.409-2.563-2.409z"/>
        </g>
    </g>
</svg>
