<svg xmlns="http://www.w3.org/2000/svg" width="46" height="41" viewBox="0 0 46 41">
    <g fill="none" fill-rule="evenodd" transform="translate(-101 -662)">
        <path fill="#FFF" d="M0 0h1366v4500H0z"/>
        <rect width="600" height="208" x="71" y="609" fill="#B6CAFB" opacity=".12" rx="10.498"/>
        <g fill="#5869F8" fill-rule="nonzero">
            <path d="M132.436 682.136a.906.906 0 0 0-.635-.262.9.9 0 0 0-.898.895.899.899 0 0 0 1.796 0 .9.9 0 0 0-.263-.633z"/>
            <path d="M138.356 662.01h-28.735c-.496 0-.898.4-.898.895v14.316c0 .494.402.895.898.895h13.47v3.758h-15.34c-.497 0-.899.4-.899.894v6.98h-4.954c-.496 0-.898.4-.898.894v11.453c0 .494.402.895.898.895h11.494c.496 0 .898-.4.898-.895v-11.453a.896.896 0 0 0-.898-.894h-4.744v-6.085h14.443v6.085h-4.838c-.496 0-.898.4-.898.894v11.453c0 .494.402.895.898.895h11.494c.496 0 .898-.4.898-.895v-11.453a.896.896 0 0 0-.898-.894h-4.86v-6.085h3.592c.495 0 .898-.4.898-.895a.896.896 0 0 0-.898-.894h-3.592v-3.758h13.47c.495 0 .898-.4.898-.895v-14.316a.897.897 0 0 0-.899-.895zm-25.862 29.527v9.663h-9.698v-9.663h9.698zm16.355 0v9.663h-9.698v-9.663h9.698zm8.61-15.21h-26.94v-8.948h6.083c.496 0 .898-.401.898-.895a.896.896 0 0 0-.898-.895h-6.083v-1.79h26.94v12.527z"/>
            <path d="M146.102 689.748h-4.977v-6.98a.896.896 0 0 0-.898-.894h-4.924c-.496 0-.898.4-.898.894 0 .495.402.895.898.895h4.026v6.085h-4.721c-.496 0-.898.4-.898.894v11.453c0 .494.402.895.898.895h11.494c.496 0 .898-.4.898-.895v-11.453a.896.896 0 0 0-.898-.894zm-.898 11.452h-9.698v-9.663h9.698v9.663zM121.014 665.851a.907.907 0 0 0-.634-.262.9.9 0 0 0-.898.895.899.899 0 0 0 1.796 0 .9.9 0 0 0-.264-.633z"/>
        </g>
    </g>
</svg>
