<svg xmlns="http://www.w3.org/2000/svg" width="43" height="39" viewBox="0 0 43 39">
    <g fill="none" fill-rule="evenodd" transform="translate(-505 -4044)">
        <path fill="#FFF" d="M0 0h1366v4500H0z"/>
        <rect width="1492" height="586" x="-62" y="3673" fill="#B6CAFB" opacity=".12" rx="10.498"/>
        <rect width="78" height="78" x="487" y="4024" stroke="#5869F8" stroke-width="2" opacity=".3" rx="20.9"/>
        <g stroke="#5869F8" transform="translate(506 4045)">
            <rect width="41" height="37" stroke-width="2" rx="3.2"/>
            <g fill="#5869F8" fill-rule="nonzero" stroke-width=".5">
                <path d="M30.98 16.21c.47-.464.636-1.145.433-1.778a1.71 1.71 0 0 0-1.384-1.18l-5.689-.837a.343.343 0 0 1-.258-.19l-2.544-5.216A1.702 1.702 0 0 0 20 6.042c-.657 0-1.247.37-1.537.967l-2.545 5.216a.343.343 0 0 1-.258.19l-5.689.836a1.71 1.71 0 0 0-1.384 1.181 1.738 1.738 0 0 0 .434 1.778l4.117 4.06a.35.35 0 0 1 .098.308l-.972 5.733c-.11.656.15 1.306.682 1.697a1.687 1.687 0 0 0 1.806.132l5.089-2.707a.34.34 0 0 1 .319 0l5.088 2.707a1.694 1.694 0 0 0 1.806-.132 1.734 1.734 0 0 0 .682-1.697l-.972-5.733a.35.35 0 0 1 .099-.307l4.116-4.06zm-5.568 4.603l.972 5.733a.34.34 0 0 1-.136.34.331.331 0 0 1-.362.026l-5.088-2.707a1.698 1.698 0 0 0-1.596 0l-5.088 2.706a.331.331 0 0 1-.361-.026.34.34 0 0 1-.137-.34l.972-5.732a1.747 1.747 0 0 0-.493-1.536l-4.116-4.06a.341.341 0 0 1-.087-.356.336.336 0 0 1 .277-.236l5.688-.837a1.716 1.716 0 0 0 1.292-.949l2.544-5.216A.334.334 0 0 1 20 7.43c.064 0 .223.018.308.193l2.544 5.216c.25.513.732.867 1.29.95l5.69.836c.19.028.257.174.277.236.02.062.05.22-.087.356l-4.117 4.06a1.747 1.747 0 0 0-.493 1.536zM28.012 7.008a.68.68 0 0 0-.958.154l-.728 1.014a.7.7 0 0 0 .152.97.678.678 0 0 0 .958-.154l.728-1.014a.7.7 0 0 0-.152-.97zM13.67 8.172l-.727-1.014a.68.68 0 0 0-.958-.154.7.7 0 0 0-.152.97l.728 1.014a.682.682 0 0 0 .958.153.7.7 0 0 0 .152-.97zM9.516 21.612a.684.684 0 0 0-.864-.446l-1.178.388a.696.696 0 0 0 .212 1.354c.07 0 .142-.011.212-.034l1.178-.388a.696.696 0 0 0 .44-.874zM20 29.317a.69.69 0 0 0-.686.694v1.253a.69.69 0 0 0 .686.694.69.69 0 0 0 .686-.694v-1.253a.69.69 0 0 0-.686-.694zM32.526 21.555l-1.178-.388a.684.684 0 0 0-.864.446.696.696 0 0 0 .44.874l1.178.388a.687.687 0 0 0 .864-.446.696.696 0 0 0-.44-.874z"/>
            </g>
        </g>
    </g>
</svg>
