<svg xmlns="http://www.w3.org/2000/svg" width="58" height="58" viewBox="0 0 58 58">
    <defs>
        <linearGradient id="a" x1="100%" x2="0%" y1="75.729%" y2="24.239%">
            <stop offset="0%" stop-color="#D57EEB"/>
            <stop offset="100%" stop-color="#FCCB90"/>
        </linearGradient>
    </defs>
    <g fill="none" fill-rule="evenodd">
        <path fill="#FFF" d="M-100-1921h1366v3331H-100z"/>
        <path fill="url(#a)" d="M129 1959.68l-16.28 10.757a3 3 0 0 1-4.157-4.157L119.32 1950l-10.757-16.28a3 3 0 0 1 4.157-4.157L129 1940.32l16.28-10.757a3 3 0 0 1 4.157 4.157L138.68 1950l10.757 16.28a3 3 0 0 1-4.157 4.157L129 1959.68z" transform="rotate(-45 -2239.852 1110.21)"/>
    </g>
</svg>
