<svg xmlns="http://www.w3.org/2000/svg" width="31" height="31" viewBox="0 0 31 31">
    <defs>
        <linearGradient id="a" x1="100%" x2="0%" y1="75.729%" y2="24.239%">
            <stop offset="0%" stop-color="#D57EEB"/>
            <stop offset="100%" stop-color="#FCCB90"/>
        </linearGradient>
    </defs>
    <g fill="none" fill-rule="evenodd">
        <path fill="#FFF" d="M-210-1128h1366v3331H-210z"/>
        <path fill="url(#a)" d="M225.5 1149.95l-6.757 4.463a3 3 0 0 1-4.156-4.156l4.464-6.757-4.464-6.757a3 3 0 0 1 4.156-4.156l6.757 4.464 6.757-4.464a3 3 0 0 1 4.156 4.156l-4.464 6.757 4.464 6.757a3 3 0 0 1-4.156 4.156l-6.757-4.464z" transform="rotate(-45 -1241.116 832.992)"/>
    </g>
</svg>
