<svg xmlns="http://www.w3.org/2000/svg" width="39" height="39" viewBox="0 0 39 39">
    <defs>
        <linearGradient id="a" x1="50%" x2="50%" y1="0%" y2="100%">
            <stop offset="0%" stop-color="#A5C0EE"/>
            <stop offset="100%" stop-color="#FBC5EC"/>
        </linearGradient>
    </defs>
    <g fill="none" fill-rule="evenodd">
        <path fill="#FFF" d="M-518-902H848v3331H-518z"/>
        <path fill="url(#a)" d="M537.5 928.989l-9.821 6.489a3 3 0 0 1-4.157-4.157l6.49-9.821-6.49-9.821a3 3 0 0 1 4.157-4.157l9.821 6.49 9.821-6.49a3 3 0 0 1 4.157 4.157l-6.49 9.821 6.49 9.821a3 3 0 0 1-4.157 4.157l-9.821-6.49z" transform="rotate(-45 -810.31 1095.781)"/>
    </g>
</svg>
