<svg xmlns="http://www.w3.org/2000/svg" width="46" height="46" viewBox="0 0 46 46">
    <g fill="none" fill-rule="evenodd">
        <path fill="#FFF" d="M-728-837H638v3860H-728z"/>
        <g fill="#5869F8" fill-rule="nonzero">
            <path d="M21.21 32.003a.901.901 0 0 0-1.271 0 .901.901 0 0 0-.263.634c0 .235.096.467.263.634a.907.907 0 0 0 .635.262.906.906 0 0 0 .635-.262.903.903 0 0 0 .264-.634.901.901 0 0 0-.264-.634zM38.65 4.842h-9.136a.898.898 0 1 0 0 1.793h9.136a.7.7 0 0 1 .702.695v6.748a.898.898 0 0 0 1.796 0V7.33a2.496 2.496 0 0 0-2.498-2.488zM26.87 5.104a.905.905 0 0 0-1.27 0 .905.905 0 0 0-.264.635.902.902 0 0 0 .898.896.902.902 0 0 0 .898-.897.905.905 0 0 0-.262-.634z"/>
            <path d="M38.368 28.9a6.136 6.136 0 0 0 1.856-4.397v-6.57a.898.898 0 0 0-.898-.896h-6.534c-2.71 0-4.914 2.2-4.914 4.905v2.56c0 1.707.698 3.253 1.825 4.37h-5.805v-1.828c0-3.41-2.569-6.23-5.876-6.639a4.656 4.656 0 0 0 1.046-2.943v-3.68a.91.91 0 0 0-.006-.106c.004-.064.006-.129.006-.194v-2.329a.898.898 0 0 0-.898-.896h-4.7a3.788 3.788 0 0 0-3.788 3.78v3.425c0 1.114.392 2.138 1.046 2.943-3.307.41-5.876 3.23-5.876 6.64v1.827H1.797V7.33a.7.7 0 0 1 .701-.695h1.066a.898.898 0 1 0 0-1.793H2.498A2.496 2.496 0 0 0 0 7.33v26.585a2.496 2.496 0 0 0 2.498 2.489H16.17v4.144a4.499 4.499 0 0 0-4.041 4.466c0 .495.402.896.898.896h32.075a.898.898 0 0 0 .898-.896v-7.822c0-4.35-3.363-7.932-7.632-8.291zm-8.694-4.397v-2.561a3.118 3.118 0 0 1 3.118-3.112h5.635v5.673a4.377 4.377 0 0 1-8.753 0zM11.478 14.037a1.99 1.99 0 0 1 1.991-1.987h3.802v1.432c0 .71-.58 1.29-1.292 1.29h-4.5v-.735zm0 2.528h4.501c.461 0 .899-.102 1.292-.284v1.18a2.897 2.897 0 0 1-5.793 0v-.896zm3.945 5.58l-1.048 1.047-1.048-1.046h2.096zm-8.775 4.9c0-2.458 1.823-4.498 4.19-4.846l2.902 2.895a.897.897 0 0 0 1.27 0l2.901-2.895c2.367.348 4.19 2.388 4.19 4.845v1.828H6.648v-1.828zm15.454 17.072h-8.023a2.705 2.705 0 0 1 2.548-1.799h5.475v1.799zm0-6.925v3.333h-4.135v-4.121h4.172c-.024.26-.037.522-.037.788zM2.498 34.61a.7.7 0 0 1-.701-.695v-3.25h23.477a8.353 8.353 0 0 0-2.761 3.945H2.498zm41.705 5.915H37.33a.898.898 0 1 0 0 1.793h6.873v1.799H23.898v-6.925c0-3.587 2.914-6.507 6.504-6.527h2.66l.02-.001h4.58c3.607 0 6.541 2.928 6.541 6.528v3.333zM14.393 0a.898.898 0 0 0-.898.897v4.842a.898.898 0 0 0 1.797 0V.897A.898.898 0 0 0 14.393 0zM22.01 3.517a.9.9 0 0 0-1.27 0l-1.58 1.576a.896.896 0 0 0 .635 1.531c.23 0 .46-.087.636-.262l1.579-1.576a.895.895 0 0 0 0-1.269z"/>
            <path d="M9.605 5.104l-1.594-1.59a.9.9 0 0 0-1.27 0 .896.896 0 0 0 0 1.267l1.593 1.591a.897.897 0 0 0 1.271 0 .896.896 0 0 0 0-1.268zM34.686 40.788a.902.902 0 0 0-1.27 0 .9.9 0 0 0-.264.633c0 .236.096.468.264.634a.906.906 0 0 0 .635.263.906.906 0 0 0 .635-.263.903.903 0 0 0 .263-.634.9.9 0 0 0-.263-.633z"/>
        </g>
    </g>
</svg>
