<svg xmlns="http://www.w3.org/2000/svg" width="42" height="35" viewBox="0 0 42 35">
    <g fill="none" fill-rule="evenodd">
        <path fill="#FFF" d="M-695-2821H671V510H-695z"/>
        <path fill="#B6CAFB" d="M-695-165H680v440H-695z" opacity=".12"/>
        <path fill="#5869F8" fill-rule="nonzero" d="M41.071 34.904H.89a.885.885 0 0 1-.889-.88c0-.486.398-.88.889-.88H41.07c.491 0 .889.394.889.88s-.398.88-.889.88zm-1.63-4.013a.885.885 0 0 1-.889-.88V10.553h-5.987a.885.885 0 0 1-.889-.88c0-.486.398-.88.89-.88h6.875c.491 0 .889.394.889.88V30.01c0 .486-.398.88-.89.88zm-7.711 0a.885.885 0 0 1-.89-.88v-9.946c0-.487.399-.88.89-.88.49 0 .888.393.888.88v9.946c0 .486-.398.88-.888.88zm-7.167 0a.885.885 0 0 1-.889-.88v-9.946c0-.487.398-.88.89-.88.49 0 .888.393.888.88v9.946c0 .486-.398.88-.889.88zm-7.166 0a.885.885 0 0 1-.889-.88v-9.946c0-.487.398-.88.889-.88.49 0 .889.393.889.88v9.946c0 .486-.398.88-.89.88zm-7.166 0a.885.885 0 0 1-.89-.88v-9.946c0-.487.399-.88.89-.88.49 0 .888.393.888.88v9.946c0 .486-.398.88-.888.88zm-7.712 0a.885.885 0 0 1-.889-.88V9.699v-.026c0-.486.398-.88.889-.88h6.876c.491 0 .889.394.889.88s-.398.88-.889.88H3.408v19.458c0 .486-.398.88-.889.88zm33.153-8.234a.885.885 0 0 1-.889-.88v-1.712c0-.487.398-.88.89-.88.49 0 .888.393.888.88v1.712c0 .486-.398.88-.889.88zm-29.383 0a.885.885 0 0 1-.889-.88v-1.712c0-.487.398-.88.89-.88.49 0 .888.393.888.88v1.712c0 .486-.398.88-.889.88zm29.383-5.37a.885.885 0 0 1-.889-.88v-1.712c0-.486.398-.88.89-.88.49 0 .888.394.888.88v1.712c0 .486-.398.88-.889.88zm-29.383 0a.885.885 0 0 1-.889-.88v-1.712c0-.486.398-.88.89-.88.49 0 .888.394.888.88v1.712c0 .486-.398.88-.889.88zm25.44 0H10.232a.885.885 0 0 1-.89-.88c0-.486.399-.88.89-.88H31.73c.49 0 .889.394.889.88s-.398.88-.89.88zm0-3a.893.893 0 0 1-.394-.092l-10.45-5.129-10.254 5.126a.893.893 0 0 1-1.194-.39.877.877 0 0 1 .393-1.182L20.09 7.49V.936c0-.486.398-.88.889-.88h6.426c.49 0 .888.394.888.88v3.327c0 .486-.398.88-.888.88h-5.537v2.44l10.255 5.034c.44.216.62.744.402 1.18a.89.89 0 0 1-.797.49zM21.87 3.382h4.648V1.817h-4.648v1.565z"/>
    </g>
</svg>
