<svg xmlns="http://www.w3.org/2000/svg" width="42" height="37" viewBox="0 0 42 37">
    <g fill="none" fill-rule="evenodd">
        <path fill="#FFF" d="M-695-2944H671V387H-695z"/>
        <path fill="#B6CAFB" d="M-695-288H680v440H-695z" opacity=".12"/>
        <path fill="#5869F8" fill-rule="nonzero" d="M41.07 36.948H.89a.88.88 0 0 1-.889-.87c0-.481.398-.871.889-.871H41.07c.49 0 .889.39.889.87a.88.88 0 0 1-.89.871zm-1.63-3.968a.88.88 0 0 1-.888-.87V12.87h-7.168a.88.88 0 0 1-.889-.87c0-.481.398-.871.89-.871h8.056c.49 0 .889.39.889.87V32.11a.88.88 0 0 1-.89.871zm-4.43 0h-4.95a.88.88 0 0 1-.89-.87V15.832c0-.48.399-.87.89-.87h4.95c.491 0 .89.39.89.87v16.276a.88.88 0 0 1-.89.871zm-4.062-1.741h3.174v-3.685h-3.174v3.685zm0-5.426h3.174V22.13h-3.174v3.684zm0-5.425h3.174v-3.684h-3.174v3.684zM25.542 32.98a.88.88 0 0 1-.89-.87V21.134h-7.345v10.974a.88.88 0 0 1-.889.871.88.88 0 0 1-.889-.87V20.263a.88.88 0 0 1 1.036-.859.908.908 0 0 1 .148-.012h8.534c.05 0 .1.005.148.012a.88.88 0 0 1 1.036.859V32.11a.88.88 0 0 1-.89.871zm-13.642 0H6.95a.88.88 0 0 1-.89-.87V15.832c0-.48.398-.87.89-.87h4.95c.491 0 .89.39.89.87v16.276a.88.88 0 0 1-.89.871zM7.838 31.24h3.173v-3.685H7.838v3.685zm0-5.426h3.173V22.13H7.838v3.684zm0-5.425h3.173v-3.684H7.838v3.684zM2.518 32.98a.88.88 0 0 1-.888-.87V12.02 12c0-.48.398-.87.889-.87h8.056c.491 0 .89.39.89.87a.88.88 0 0 1-.89.871H3.408V32.11a.88.88 0 0 1-.89.871zm18.462-4.612a.88.88 0 0 1-.889-.87v-1.699c0-.48.398-.87.889-.87.49 0 .889.39.889.87v1.698a.88.88 0 0 1-.89.87zm-.102-11.631c-4.708 0-8.538-3.751-8.538-8.362V.883c0-.48.398-.87.89-.87h15.297c.491 0 .89.39.89.87v7.492c0 4.61-3.83 8.362-8.539 8.362zm-6.76-14.983v6.62c0 3.652 3.033 6.622 6.76 6.622 3.728 0 6.76-2.97 6.76-6.621V1.754h-13.52zm6.862 10.245a.904.904 0 0 1-.23-.03h-.003-.002l-.001-.001a.774.774 0 0 1-.031-.01l-3.955-1.21a.873.873 0 0 1-.624-.83V4.262c0-.277.135-.537.363-.701a.904.904 0 0 1 .791-.13l3.692 1.13 3.692-1.13a.904.904 0 0 1 .792.13.865.865 0 0 1 .362.701v5.656c0 .38-.252.717-.623.83l-3.958 1.211a.906.906 0 0 1-.265.04zm-3.068-2.722l2.18.667v-3.83l-2.18-.668v3.831zm3.957-3.164v3.831l2.18-.666V5.446l-2.18.667z"/>
    </g>
</svg>
