<svg xmlns="http://www.w3.org/2000/svg" width="39" height="35" viewBox="0 0 39 35">
    <g fill="none" fill-rule="evenodd">
        <path fill="#FFF" d="M-71-2823h1366V508H-71z"/>
        <path fill="#B6CAFB" d="M-71-167h1375v440H-71z" opacity=".12"/>
        <path fill="#5869F8" fill-rule="nonzero" d="M24.31 34.93c-2.725 0-5.41-.256-7.981-.761a.885.885 0 0 1-.725-.86v-8.834l-4.692-1.36a.882.882 0 0 1-.646-.841c0-.388.263-.73.646-.841l13.14-3.81a.93.93 0 0 1 .517 0l13.12 3.804c.078.02.151.05.22.09a.873.873 0 0 1 .445.78v4.551l.557 1.3a.869.869 0 0 1-.488 1.147.925.925 0 0 1-.973-.177.925.925 0 0 1-.973.177.869.869 0 0 1-.488-1.147l.557-1.3v-3.396l-11.977 3.472a.93.93 0 0 1-.517 0L17.412 25v7.583c2.232.392 4.549.591 6.899.591 2.35 0 4.666-.199 6.897-.591v-4.964c0-.485.405-.878.905-.878s.904.393.904.878v5.69a.885.885 0 0 1-.725.86c-2.571.505-5.256.76-7.982.76zm-7.52-11.943l7.52 2.18 9.98-2.893-9.98-2.893-9.98 2.893 2.415.7.045.013zm-4.052 7.05a.93.93 0 0 1-.27-.04L.635 26.41A.881.881 0 0 1 0 25.572V.929A.87.87 0 0 1 .369.222a.927.927 0 0 1 .805-.13L16.635 4.78 31.843.169a.927.927 0 0 1 .805.13.87.87 0 0 1 .369.708v15.672a.891.891 0 0 1-.905.878.891.891 0 0 1-.904-.878V2.2L17.413 6.384v9.852a.891.891 0 0 1-.905.878.891.891 0 0 1-.904-.878v-9.93L1.809 2.123v22.803l11.198 3.396a.873.873 0 0 1 .593 1.1.902.902 0 0 1-.862.616zM8.706 18.4a.93.93 0 0 1-.27-.04l-2.476-.751a.873.873 0 0 1-.593-1.1.91.91 0 0 1 1.133-.576l2.476.751a.873.873 0 0 1 .593 1.1.902.902 0 0 1-.863.616zm13.128-3.615a.902.902 0 0 1-.863-.616.873.873 0 0 1 .593-1.1l4.953-1.501a.91.91 0 0 1 1.133.576.873.873 0 0 1-.594 1.1l-4.952 1.501a.924.924 0 0 1-.27.04zm-10.651 0a.93.93 0 0 1-.27-.04L5.96 13.243a.873.873 0 0 1-.593-1.1.91.91 0 0 1 1.133-.575l4.952 1.502a.873.873 0 0 1 .594 1.1.902.902 0 0 1-.863.615zm10.65-4.097a.902.902 0 0 1-.862-.616.873.873 0 0 1 .593-1.1l4.953-1.502a.91.91 0 0 1 1.133.576.873.873 0 0 1-.594 1.1l-4.952 1.502a.924.924 0 0 1-.27.04zm-10.65 0a.93.93 0 0 1-.27-.04L5.96 9.146a.873.873 0 0 1-.593-1.1A.91.91 0 0 1 6.5 7.47l4.952 1.502a.873.873 0 0 1 .594 1.1.902.902 0 0 1-.863.616z"/>
    </g>
</svg>
