<svg xmlns="http://www.w3.org/2000/svg" width="37" height="34" viewBox="0 0 37 34">
    <g fill="none" fill-rule="evenodd">
        <path fill="#FFF" d="M-71-2951h1366V380H-71z"/>
        <path fill="#B6CAFB" d="M-71-295h1375v440H-71z" opacity=".12"/>
        <path fill="#5869F8" fill-rule="nonzero" d="M36.024 33.932H26.01c-.538 0-.975-.4-.975-.895 0-.494.437-.894.975-.894h9.038V1.789H15.95v3.152c0 .495-.437.895-.975.895-.54 0-.976-.4-.976-.895V.895c0-.494.437-.895.976-.895h21.05c.538 0 .975.4.975.895v32.142c0 .494-.437.895-.976.895zm-21.05 0H7.979c-.539 0-.976-.4-.976-.895 0-.494.437-.895.976-.895h6.021v-4.109H.976c-.54 0-.976-.4-.976-.895V8.771c0-.494.437-.894.976-.894h27.997c.54 0 .976.4.976.894v18.367c0 .494-.437.895-.976.895H15.95v4.11h6.021c.539 0 .976.4.976.894s-.437.895-.976.895H14.975zm0-7.688h13.024V9.666H1.95v16.578h13.024zm7.67-5.709H7.304c-.538 0-.975-.4-.975-.894 0-.495.437-.895.975-.895h15.34c.54 0 .976.4.976.895 0 .494-.437.894-.976.894zm-3.451-3.371h-8.437c-.539 0-.975-.4-.975-.895 0-.494.436-.895.975-.895h8.437c.538 0 .975.401.975.895s-.437.895-.975.895z"/>
    </g>
</svg>
